<svg xmlns="http://www.w3.org/2000/svg" xmlns:xlink="http://www.w3.org/1999/xlink" xmlns:lucid="lucid" width="895" height="217"><g transform="translate(-171 -334)" lucid:page-tab-id="0_0"><path d="M503 287.5h100v39H503z" stroke="#c7e8ac" stroke-width="2" fill="#e9f8dc"/><use xlink:href="#a" transform="matrix(1,0,0,1,508,292.5) translate(30.377777777777773 17.953333333333333)"/><path d="M659.88 287.5h146.25v39H659.88z" stroke="#3aa6dd" stroke-width="2" fill="#c1e4f7"/><use xlink:href="#b" transform="matrix(1,0,0,1,664.875,292.5) translate(21.546999999999997 18.496)"/><use xlink:href="#c" transform="matrix(1,0,0,1,664.875,292.5) translate(64.08099999999999 18.496)"/><path d="M883 287.5h146.25v39H883z" stroke="#b2b2b2" stroke-width="2" fill="#f2f2f2"/><use xlink:href="#d" transform="matrix(1,0,0,1,888,292.5) translate(17.267777777777766 17.953333333333333)"/><use xlink:href="#e" transform="matrix(1,0,0,1,888,292.5) translate(50.401111111111106 17.953333333333333)"/><path d="M400 160h80v160h-80z" fill="none"/><path d="M480 320c-5.52 0-10-4.48-10-10v-60c0-5.52-4.48-10-10-10 5.52 0 10-4.48 10-10v-60c0-5.52 4.48-10 10-10" stroke="#666" stroke-width="2" fill="none"/><path d="M425 397.25h100v87.5H425z" stroke="#c7e8ac" stroke-width="2" fill="#e9f8dc"/><use xlink:href="#f" transform="matrix(1,0,0,1,430,402.25) translate(10.334444444444436 34.675555555555555)"/><use xlink:href="#g" transform="matrix(1,0,0,1,430,402.25) translate(22.319999999999993 50.23111111111111)"/><path d="M300 412h200v50H300z" stroke="#000" stroke-opacity="0" stroke-width="2" fill="#fff" fill-opacity="0"/><use xlink:href="#h" transform="matrix(6.123233995736766e-17,1,-1,6.123233995736766e-17,495,417) translate(2.7333333333333307 98.45333333333335)"/><path d="M186.88 350.25h146.25v39H186.88z" stroke="#b2b2b2" stroke-width="2" fill="#f2f2f2"/><use xlink:href="#d" transform="matrix(1,0,0,1,191.875,355.25) translate(17.267777777777766 17.953333333333333)"/><use xlink:href="#e" transform="matrix(1,0,0,1,191.875,355.25) translate(50.401111111111106 17.953333333333333)"/><path d="M186.88 398.25h146.25v39H186.88z" stroke="#b2b2b2" stroke-width="2" fill="#f2f2f2"/><use xlink:href="#d" transform="matrix(1,0,0,1,191.875,403.25) translate(17.267777777777766 17.953333333333333)"/><use xlink:href="#e" transform="matrix(1,0,0,1,191.875,403.25) translate(50.401111111111106 17.953333333333333)"/><path d="M186.88 492.75h146.25v39H186.88z" stroke="#b2b2b2" stroke-width="2" fill="#f2f2f2"/><use xlink:href="#d" transform="matrix(1,0,0,1,191.875,497.75) translate(17.267777777777766 17.953333333333333)"/><use xlink:href="#e" transform="matrix(1,0,0,1,191.875,497.75) translate(50.401111111111106 17.953333333333333)"/><path d="M140 437.25h240v60H140z" stroke="#000" stroke-opacity="0" stroke-width="2" fill="#fff" fill-opacity="0"/><use xlink:href="#i" transform="matrix(1,0,0,1,145,442.25) translate(107.467 28.996)"/><path d="M579 423h146.25v39H579z" stroke="#ff8f80" stroke-width="2" fill="#ffcdc6"/><use xlink:href="#j" transform="matrix(1,0,0,1,584,428) translate(23.644000000000005 18.496)"/><use xlink:href="#c" transform="matrix(1,0,0,1,584,428) translate(61.984 18.496)"/><path d="M526 441h35.38" stroke="#666" fill="none"/><path d="M526 441.5h-1v-1h1zM576.38 441l-14.26 4.64v-9.28z" fill="#666"/><path d="M578 441l-16.38 5.32v-10.64zm-15.38 3.95l12.14-3.95-12.14-3.95z" fill="#666"/><path d="M779 378.5h43.88v117H779z" stroke="#b2b2b2" stroke-width="2" fill="#e5e5e5"/><use xlink:href="#k" transform="matrix(6.123233995736766e-17,1,-1,6.123233995736766e-17,817.875,383.5) translate(36.871111111111105 12.675555555555555)"/><use xlink:href="#l" transform="matrix(6.123233995736766e-17,1,-1,6.123233995736766e-17,817.875,383.5) translate(17.34111111111111 28.23111111111111)"/><path d="M726.25 442.5h35.13" stroke="#666" fill="none"/><path d="M726.25 443h-1v-1h1zM776.38 442.5l-14.26 4.64v-9.28z" fill="#666"/><path d="M778 442.5l-16.38 5.32v-10.64zm-15.38 3.95l12.14-3.95-12.14-3.95z" fill="#666"/><path d="M415.7 412v33.38" stroke="#666" fill="none"/><path fill="#666"/><path d="M415.7 460.38l-4.65-14.26h9.27z" fill="#666"/><path d="M415.7 462l-5.34-16.38H421zm-3.96-15.38l3.95 12.14 3.93-12.14z" fill="#666"/><path d="M879 423h146.25v39H879z" stroke="#ffc374" stroke-width="2" fill="#ffebd0"/><use xlink:href="#m" transform="matrix(1,0,0,1,884,428) translate(7.480000000000004 18.496)"/><use xlink:href="#n" transform="matrix(1,0,0,1,884,428) translate(49.294 18.496)"/><path d="M823.88 444.66h37.5" stroke="#666" fill="none"/><path d="M823.88 445.16h-1v-1h1zM876.38 444.66l-14.26 4.63V440z" fill="#666"/><path d="M878 444.66l-16.38 5.32v-10.65zm-15.38 3.94l12.14-3.94-12.14-3.95z" fill="#666"/><path d="M350 357h80v160h-80z" fill="none"/><path d="M350 517c5.52 0 10-4.48 10-10v-60c0-5.52 4.48-10 10-10-5.52 0-10-4.48-10-10v-60c0-5.52-4.48-10-10-10" stroke="#666" stroke-width="2" fill="none"/><path d="M380 368.83h659V503H380z" fill-opacity="0"/><path d="M392.05 368.83h8.04m8.03 0h8.03m8.04 0h8.04m8.03 0h8.04m8.05 0h8.03m8.04 0h8.04m8.03 0h8.03m8.04 0h8.03m8.04 0h8.04m8.03 0h8.05m8.04 0h8.02m8.04 0h8.04m8.03 0h8.04m8.04 0h8.04m8.04 0h8.04m8.03 0h8.04m8.03 0h8.03m8.04 0h8.04m8.03 0h8.04m8.05 0h8.03m8.04 0h8.04m8.03 0h8.03m8.04 0h8.03m8.04 0h8.04m8.03 0h8.05m8.04 0h8.02m8.04 0H818m8.03 0h8.04m8.04 0h8.04m8.04 0h8.04m8.03 0h8.04m8.03 0h8.03m8.04 0h8.04m8.03 0h8.04m8.05 0h8.03m8.04 0h8.04m8.03 0h8.03m8.04 0h8.03m8.04 0h8.04m8.03 0h8.05m8.04 0h4v4.2m0 8.38v8.4m0 8.38v8.4m0 8.37v8.4m0 8.37v8.4m0 8.37v8.38m0 8.4v8.37m0 8.4v8.37m0 8.4V503h-4m-8.05 0h-8.04m-8.02 0h-8.04m-8.04 0h-8.03m-8.04 0h-8.04m-8.04 0h-8.04m-8.04 0h-8.03m-8.04 0h-8.03m-8.03 0h-8.04m-8.04 0h-8.03m-8.04 0h-8.05m-8.03 0h-8.04m-8.04 0h-8.03m-8.03 0h-8.04m-8.03 0h-8.04m-8.04 0h-8.03m-8.05 0h-8.04m-8.02 0h-8.04m-8.04 0h-8.03m-8.04 0h-8.04m-8.04 0h-8.04m-8.04 0h-8.03m-8.04 0h-8.03m-8.03 0h-8.04m-8.04 0h-8.03m-8.04 0h-8.05m-8.03 0h-8.04m-8.04 0H601m-8.03 0h-8.04m-8.03 0h-8.04m-8.04 0h-8.03m-8.05 0h-8.04m-8.02 0h-8.04m-8.04 0h-8.03m-8.04 0h-8.04m-8.04 0h-8.04m-8.04 0h-8.03m-8.04 0h-8.03m-8.03 0h-8.04m-8.04 0h-8.03m-8.04 0h-8.05m-8.03 0H380v-4.2m0-8.38v-8.38m0-8.4v-8.37m0-8.4v-8.38m0-8.4v-8.38m0-8.38v-8.4m0-8.37v-8.4m0-8.37v-8.4m0-8.37v-4.2h4.02" stroke="#666" stroke-width="2" fill="none"/><path d="M820 494h240v60H820z" stroke="#000" stroke-opacity="0" stroke-width="2" fill="#fff" fill-opacity="0"/><g><use xlink:href="#o" transform="matrix(1,0,0,1,825,499) translate(21.86800000000001 28.996)"/><use xlink:href="#p" transform="matrix(1,0,0,1,825,499) translate(63.682 28.996)"/><use xlink:href="#q" transform="matrix(1,0,0,1,825,499) translate(148.40800000000002 28.996)"/></g><path d="M413 160h34.75v160H413z" stroke="#b2b2b2" stroke-width="2" fill="#e5e5e5"/><g><use xlink:href="#r" transform="matrix(6.123233995736766e-17,1,-1,6.123233995736766e-17,442.75,164.99999999999997) translate(18.233456790123455 15.61111111111111)"/><use xlink:href="#s" transform="matrix(6.123233995736766e-17,1,-1,6.123233995736766e-17,442.75,164.99999999999997) translate(54.99123456790123 15.61111111111111)"/></g><path d="M574 398.25h160v25H574z" stroke="#000" stroke-opacity="0" stroke-width="2" fill="#fff" fill-opacity="0"/><g><use xlink:href="#t" transform="matrix(1,0,0,1,579,403.25) translate(13.493333333333325 11.231111111111112)"/><use xlink:href="#u" transform="matrix(1,0,0,1,579,403.25) translate(60.44 11.231111111111112)"/><use xlink:href="#v" transform="matrix(1,0,0,1,579,403.25) translate(85.3288888888889 11.231111111111112)"/></g><defs><path fill="#333" d="M24 0v-19c40 1 80-1 89-17 14-15 14-21 14-104v-392c0-76-2-77-16-94-14-16-45-22-84-21v-20h317v20c-15 1-20 2-40 2-87 3-88 5-88 108v436c0 58 3 62 55 62h120c79 0 87-4 141-73l35-45h19L504 0H24" id="w"/><path fill="#333" d="M136-604c-28 0-47-17-47-42 0-23 20-40 47-40s47 17 47 41-20 41-47 41zM18-20c77-11 89-9 89-105v-179c0-56 0-55-56-67l-27-6v-17l139-48h15v317c0 62 1 68 13 83 12 14 26 19 64 22V0H18v-20" id="x"/><path fill="#333" d="M313-387c-24-9-119 47-142 64v189c0 81 1 80 10 94 10 15 27 20 62 20V0H28v-20c24 1 47-9 59-23 23-29 13-170 13-231 0-106 10-71-69-100v-16l124-46h16v93c77-55 147-87 189-87 146 0 113 207 103 365-2 38 28 47 84 45V0H316v-20c46-4 61-12 70-36 8-21 14-117 14-209 0-77-24-117-87-122" id="y"/><path fill="#333" d="M418-98C381-53 308 13 227 13 122 13 40-83 40-207c0-115 76-230 209-230 86 0 128 35 154 107 7 19 24 23 21 50H111C88-151 163-39 270-40c54 0 95-22 136-71zM114-300h220c-11-70-54-116-108-116-53 0-93 41-112 116" id="z"/><g id="a"><use transform="matrix(0.015555555555555557,0,0,0.015555555555555557,0,0)" xlink:href="#w"/><use transform="matrix(0.015555555555555557,0,0,0.015555555555555557,9.24,0)" xlink:href="#x"/><use transform="matrix(0.015555555555555557,0,0,0.015555555555555557,13.580000000000002,0)" xlink:href="#y"/><use transform="matrix(0.015555555555555557,0,0,0.015555555555555557,22.120000000000005,0)" xlink:href="#z"/></g><path fill="#333" d="M674-11c-46-12-174 28-243 28C214 17 57-126 57-325c0-209 161-359 385-359 77 0 154 25 227 44 8 2 20-9 35-6l9 154h-20c-36-100-134-166-245-166-171 1-291 130-291 310 0 190 132 336 305 336 114 0 200-52 260-156h21c-11 39-45 118-69 157" id="A"/><path fill="#333" d="M467-254c0 55-3 144-5 192-1 34 24 43 81 42V0H312v-20c107 2 84-88 84-199 0-79-4-106-17-129-17-29-46-45-83-45-36 0-62 10-125 46v213c0 81 1 81 10 94 10 15 26 20 60 20V0H27v-20c31-1 47-8 60-23 11-13 13-26 13-90v-449c0-55 0-55-6-62-3-9-48-12-68-14v-19l129-44h16v352c87-51 132-68 178-68 98 0 118 61 118 183" id="B"/><path fill="#333" d="M255-52c-39 28-89 75-129 65-56 0-95-36-95-88 0-54 33-80 126-105 41-11 68-23 96-41v-85c7-65-33-99-79-99-38 0-82 36-60 72l-73 36c-23-58 109-139 155-139 43 0 88 24 112 56 34 46 3 251 20 323 3 12 12 18 25 18 16 0 29-6 52-23l5 15c-40 36-83 60-106 60-30 0-47-23-49-65zm-92 27c14 8 60-30 90-47v-128c-19 11-32 17-93 42-43 18-60 38-60 70 0 35 28 63 63 63" id="C"/><path fill="#333" d="M246-368c-33 0-65 69-75 81v153c0 81 0 81 10 94 8 24 62 20 101 20V0H29v-20c23 1 46-9 58-23 11-14 13-25 13-90v-216l-71-26v-18l121-43h21v113c33-45 66-139 141-98 9 5 32 10 55 16l-26 65c-22 0-70-28-95-28" id="D"/><g id="b"><use transform="matrix(0.018,0,0,0.018,0,0)" xlink:href="#A"/><use transform="matrix(0.018,0,0,0.018,13.913999999999996,0)" xlink:href="#B"/><use transform="matrix(0.018,0,0,0.018,24.137999999999998,0)" xlink:href="#C"/><use transform="matrix(0.018,0,0,0.018,31.589999999999996,0)" xlink:href="#D"/></g><path fill="#333" d="M257 17c-35 0-103-28-150-28-9 0-15 3-20 11H69L47-163h21C91-71 153-15 248-12c119 4 193-116 119-204-19-37-229-152-254-187-39-35-60-79-60-125 0-90 81-156 191-156 44 0 107 20 146 27 10 2 17-15 35-10l19 136h-19c-29-77-98-128-173-128-116 0-156 120-77 188 27 23 40 35 118 84 142 90 184 140 184 221 0 105-94 183-220 183" id="E"/><path fill="#333" d="M195 0v-20c43 1 92-1 107-21 13-17 16-19 16-94v-493H155c-55 0-59 2-75 25-11 17-20 46-28 93H33l17-174h19c7 16 11 17 64 17h459c53 0 57-1 64-17h19l17 174h-19c-9-53-19-81-32-98-15-19-18-20-71-20H407v493c0 76 3 77 16 94 15 19 63 22 105 21V0H195" id="F"/><path fill="#333" d="M13 0v-20c79-1 88-14 94-115 9-152 27-304 27-457 0-39-16-52-66-55v-20h162l259 542 257-542h158v20c-92 12-73 15-67 97l29 412c6 88 7 89 17 102 11 14 38 16 78 16V0H685v-20c99-5 98-37 91-136l-28-416L479 0h-24L180-572c-9 161-29 320-29 483 0 46 24 66 85 69V0H13" id="G"/><g id="c"><use transform="matrix(0.018,0,0,0.018,0,0)" xlink:href="#w"/><use transform="matrix(0.018,0,0,0.018,11.177999999999999,0)" xlink:href="#E"/><use transform="matrix(0.018,0,0,0.018,20.628,0)" xlink:href="#F"/><use transform="matrix(0.018,0,0,0.018,33.678,0)" xlink:href="#G"/></g><g id="d"><use transform="matrix(0.015555555555555557,0,0,0.015555555555555557,0,0)" xlink:href="#w"/><use transform="matrix(0.015555555555555557,0,0,0.015555555555555557,9.24,0)" xlink:href="#x"/><use transform="matrix(0.015555555555555557,0,0,0.015555555555555557,13.580000000000002,0)" xlink:href="#y"/><use transform="matrix(0.015555555555555557,0,0,0.015555555555555557,22.120000000000005,0)" xlink:href="#z"/></g><path fill="#333" d="M348-677c248 0 415 108 415 320C763-171 614-10 401-2 301 2 134-1 23 0v-20c40 1 73-5 87-21 14-17 16-18 16-94v-398c0-64-4-80-16-95s-40-20-87-19v-20c185-7 293-10 325-10zM226-35c10 12 25 15 69 15 139 0 191-14 254-66 74-62 114-150 114-253 0-162-88-278-232-304-59-11-144-15-216-10v558c0 43 1 50 11 60" id="H"/><path fill="#333" d="M177 13c-22 0-50-8-77-15-8 0-12 4-17 14H66L55-108h17C80-46 120-6 173-6c42 0 76-32 76-72 0-36-26-67-98-115-82-55-97-74-97-122 0-103 127-148 223-105l3 99h-19c-9-55-42-90-85-90-37 0-66 27-66 61 0 35 18 55 84 97 73 46 116 60 116 144 0 69-58 122-133 122" id="I"/><path fill="#333" d="M226 13C114 13 41-85 40-194c0-134 111-243 247-243 67 0 120 27 120 61 0 18-14 32-32 32-33 10-87-78-125-66-74 0-138 89-138 191 0 108 64 188 151 188 53 0 89-21 131-77l16 9C366-27 301 13 226 13" id="J"/><path fill="#333" d="M90 114c-1-146 1-295-1-440-1-25-2-26-64-41v-21l115-70h21v103c79-57 124-78 167-78 84 0 159 95 159 200C487-70 326 60 161-14c4 59-11 208 16 225 14 18 47 20 83 19v20H7v-20c35 1 59-5 72-23 9-13 11-27 11-93zm71-200c39 36 88 59 128 59 73 0 127-70 127-165 0-106-62-189-141-189-34 0-74 19-114 53v242" id="K"/><path fill="#333" d="M103-41C88-65 87-77 87-154v-224H38v-17c40-19 81-73 102-136h18v106h153l-17 47H158v199c0 77 2 91 16 109 41 51 89 42 121-21l17 15C277 22 157 46 103-41" id="L"/><path fill="#333" d="M274 13C149 13 40-81 40-214c0-125 100-222 230-222 131 0 232 98 232 226C502-85 402 13 274 13zM120-244c0 128 74 232 166 232 78 0 136-74 136-172 0-123-76-227-166-227-78 0-136 71-136 167" id="M"/><g id="e"><use transform="matrix(0.015555555555555557,0,0,0.015555555555555557,0,0)" xlink:href="#H"/><use transform="matrix(0.015555555555555557,0,0,0.015555555555555557,12.724444444444446,0)" xlink:href="#z"/><use transform="matrix(0.015555555555555557,0,0,0.015555555555555557,19.78666666666667,0)" xlink:href="#I"/><use transform="matrix(0.015555555555555557,0,0,0.015555555555555557,25.13777777777778,0)" xlink:href="#J"/><use transform="matrix(0.015555555555555557,0,0,0.015555555555555557,32.12222222222223,0)" xlink:href="#D"/><use transform="matrix(0.015555555555555557,0,0,0.015555555555555557,38.1888888888889,0)" xlink:href="#x"/><use transform="matrix(0.015555555555555557,0,0,0.015555555555555557,42.5288888888889,0)" xlink:href="#K"/><use transform="matrix(0.015555555555555557,0,0,0.015555555555555557,50.58666666666668,0)" xlink:href="#L"/><use transform="matrix(0.015555555555555557,0,0,0.015555555555555557,55.48666666666668,0)" xlink:href="#M"/><use transform="matrix(0.015555555555555557,0,0,0.015555555555555557,63.76222222222224,0)" xlink:href="#D"/></g><g id="f"><use transform="matrix(0.015555555555555557,0,0,0.015555555555555557,0,0)" xlink:href="#H"/><use transform="matrix(0.015555555555555557,0,0,0.015555555555555557,12.724444444444446,0)" xlink:href="#z"/><use transform="matrix(0.015555555555555557,0,0,0.015555555555555557,19.78666666666667,0)" xlink:href="#I"/><use transform="matrix(0.015555555555555557,0,0,0.015555555555555557,25.13777777777778,0)" xlink:href="#J"/><use transform="matrix(0.015555555555555557,0,0,0.015555555555555557,32.12222222222223,0)" xlink:href="#D"/><use transform="matrix(0.015555555555555557,0,0,0.015555555555555557,38.1888888888889,0)" xlink:href="#x"/><use transform="matrix(0.015555555555555557,0,0,0.015555555555555557,42.5288888888889,0)" xlink:href="#K"/><use transform="matrix(0.015555555555555557,0,0,0.015555555555555557,50.58666666666668,0)" xlink:href="#L"/><use transform="matrix(0.015555555555555557,0,0,0.015555555555555557,55.48666666666668,0)" xlink:href="#M"/><use transform="matrix(0.015555555555555557,0,0,0.015555555555555557,63.76222222222224,0)" xlink:href="#D"/></g><path fill="#333" d="M8 0v-20c58-5 70-13 128-78l96-108-90-118c-49-64-70-78-127-81v-20h217v19c-19 0-50 0-48 18 11 32 72 100 94 133 21-26 93-99 88-121 0-21-14-29-55-30v-19h207v20c-78 5-88 14-172 107l-54 60 102 128c59 74 73 86 125 90V0H304v-19c74-9 59-20 22-67l-78-103-78 89c-29 34-31 35-31 45 0 21 19 31 69 36V0H8" id="N"/><g id="g"><use transform="matrix(0.015555555555555557,0,0,0.015555555555555557,0,0)" xlink:href="#G"/><use transform="matrix(0.015555555555555557,0,0,0.015555555555555557,15.524444444444445,0)" xlink:href="#C"/><use transform="matrix(0.015555555555555557,0,0,0.015555555555555557,21.824444444444445,0)" xlink:href="#L"/><use transform="matrix(0.015555555555555557,0,0,0.015555555555555557,26.78666666666667,0)" xlink:href="#D"/><use transform="matrix(0.015555555555555557,0,0,0.015555555555555557,32.85333333333334,0)" xlink:href="#x"/><use transform="matrix(0.015555555555555557,0,0,0.015555555555555557,37.19333333333334,0)" xlink:href="#N"/></g><g id="h"><use transform="matrix(0.015555555555555557,0,0,0.015555555555555557,0,0)" xlink:href="#w"/><use transform="matrix(0.015555555555555557,0,0,0.015555555555555557,9.24,0)" xlink:href="#x"/><use transform="matrix(0.015555555555555557,0,0,0.015555555555555557,13.580000000000002,0)" xlink:href="#y"/><use transform="matrix(0.015555555555555557,0,0,0.015555555555555557,22.120000000000005,0)" xlink:href="#z"/><use transform="matrix(0.015555555555555557,0,0,0.015555555555555557,29.18222222222223,0)" xlink:href="#I"/></g><path d="M84-39c0-28 24-50 55-50 33 0 56 22 56 51 0 30-23 51-56 51-32 0-55-22-55-52" id="O"/><g id="i"><use transform="matrix(0.018,0,0,0.018,0,0)" xlink:href="#O"/><use transform="matrix(0.018,0,0,0.018,5.021999999999999,0)" xlink:href="#O"/><use transform="matrix(0.018,0,0,0.018,10.043999999999999,0)" xlink:href="#O"/></g><g id="j"><use transform="matrix(0.018,0,0,0.018,0,0)" xlink:href="#w"/><use transform="matrix(0.018,0,0,0.018,10.691999999999998,0)" xlink:href="#x"/><use transform="matrix(0.018,0,0,0.018,15.713999999999999,0)" xlink:href="#y"/><use transform="matrix(0.018,0,0,0.018,25.595999999999997,0)" xlink:href="#z"/></g><path fill="#333" d="M490-256c-12-69-12-82-104-82H215v203c0 75 1 78 16 94 13 15 40 22 78 21V0H48v-20c69-5 78-21 78-115v-397c0-94-10-111-80-115v-20h481v126h-20c-1-32-7-51-18-65-16-19-29-22-101-22H215v251h176c87 1 86-9 99-68h18v189h-18" id="P"/><path fill="#333" d="M203 13C132 13 90-27 90-126v-210c7-38-30-46-67-54v-16l138-30v251c0 75 0 90 16 109 57 67 140 38 209-22v-199c0-55-1-62-7-72-7-12-9-14-55-21l-32-5v-15l165-26v359c-3 51 38 30 72 27v19L386 13v-87c-78 57-141 87-183 87" id="Q"/><path fill="#333" d="M11 0v-20c35 1 61-6 75-22 14-15 14-16 14-95v-434c0-65 0-65-6-72-6-10-55-12-75-16v-18l136-44h16c2 216-4 455 3 664 8 28 34 38 78 37V0H11" id="R"/><path fill="#333" d="M127 171c41-10 57-31 88-108l21-52L88-304c-40-84-51-98-103-101v-20h216v20c-44 1-63 10-63 30 0 11 2 15 25 65L271-78l79-199c22-54 27-71 27-86 0-30-16-40-67-42v-20h178v20c-52 8-67 28-111 138L238 81c-37 94-45 111-62 136-17 23-33 33-54 33-24 0-43-16-43-37s14-33 48-42" id="S"/><g id="k"><use transform="matrix(0.015555555555555557,0,0,0.015555555555555557,0,0)" xlink:href="#P"/><use transform="matrix(0.015555555555555557,0,0,0.015555555555555557,8.944444444444446,0)" xlink:href="#Q"/><use transform="matrix(0.015555555555555557,0,0,0.015555555555555557,17.62444444444445,0)" xlink:href="#R"/><use transform="matrix(0.015555555555555557,0,0,0.015555555555555557,21.684444444444452,0)" xlink:href="#R"/><use transform="matrix(0.015555555555555557,0,0,0.015555555555555557,25.744444444444454,0)" xlink:href="#S"/></g><path fill="#333" d="M450-117c0 86 20 68 78 54v22L392 13h-13v-77c-72 51-129 77-169 77-94 0-171-93-171-208 0-171 171-287 340-216v-183c0-56-1-56-43-61l-36-4v-18l137-44h13v604zM110-226c0 107 62 192 140 192 33 0 84-20 129-51v-237c-40-57-79-81-131-81-80 0-138 74-138 177" id="T"/><g id="l"><use transform="matrix(0.015555555555555557,0,0,0.015555555555555557,0,0)" xlink:href="#A"/><use transform="matrix(0.015555555555555557,0,0,0.015555555555555557,12.273333333333333,0)" xlink:href="#M"/><use transform="matrix(0.015555555555555557,0,0,0.015555555555555557,20.502222222222223,0)" xlink:href="#y"/><use transform="matrix(0.015555555555555557,0,0,0.015555555555555557,29.244444444444447,0)" xlink:href="#y"/><use transform="matrix(0.015555555555555557,0,0,0.015555555555555557,37.784444444444446,0)" xlink:href="#z"/><use transform="matrix(0.015555555555555557,0,0,0.015555555555555557,44.90888888888889,0)" xlink:href="#J"/><use transform="matrix(0.015555555555555557,0,0,0.015555555555555557,51.89333333333333,0)" xlink:href="#L"/><use transform="matrix(0.015555555555555557,0,0,0.015555555555555557,56.855555555555554,0)" xlink:href="#z"/><use transform="matrix(0.015555555555555557,0,0,0.015555555555555557,63.97999999999999,0)" xlink:href="#T"/></g><g id="m"><use transform="matrix(0.018,0,0,0.018,0,0)" xlink:href="#E"/><use transform="matrix(0.018,0,0,0.018,9.341999999999999,0)" xlink:href="#L"/><use transform="matrix(0.018,0,0,0.018,15.857999999999997,0)" xlink:href="#S"/><use transform="matrix(0.018,0,0,0.018,24.551999999999992,0)" xlink:href="#R"/><use transform="matrix(0.018,0,0,0.018,29.069999999999997,0)" xlink:href="#z"/></g><g id="n"><use transform="matrix(0.018,0,0,0.018,0,0)" xlink:href="#H"/><use transform="matrix(0.018,0,0,0.018,14.723999999999998,0)" xlink:href="#z"/><use transform="matrix(0.018,0,0,0.018,22.896,0)" xlink:href="#I"/><use transform="matrix(0.018,0,0,0.018,29.088,0)" xlink:href="#J"/><use transform="matrix(0.018,0,0,0.018,37.17000000000001,0)" xlink:href="#D"/><use transform="matrix(0.018,0,0,0.018,44.190000000000005,0)" xlink:href="#x"/><use transform="matrix(0.018,0,0,0.018,49.212,0)" xlink:href="#K"/><use transform="matrix(0.018,0,0,0.018,58.536,0)" xlink:href="#L"/><use transform="matrix(0.018,0,0,0.018,64.206,0)" xlink:href="#M"/><use transform="matrix(0.018,0,0,0.018,73.782,0)" xlink:href="#D"/></g><path fill="#666" d="M257 17c-35 0-103-28-150-28-9 0-15 3-20 11H69L47-163h21C91-71 153-15 248-12c119 4 193-116 119-204-19-37-229-152-254-187-39-35-60-79-60-125 0-90 81-156 191-156 44 0 107 20 146 27 10 2 17-15 35-10l19 136h-19c-29-77-98-128-173-128-116 0-156 120-77 188 27 23 40 35 118 84 142 90 184 140 184 221 0 105-94 183-220 183" id="U"/><path fill="#666" d="M103-41C88-65 87-77 87-154v-224H38v-17c40-19 81-73 102-136h18v106h153l-17 47H158v199c0 77 2 91 16 109 41 51 89 42 121-21l17 15C277 22 157 46 103-41" id="V"/><path fill="#666" d="M127 171c41-10 57-31 88-108l21-52L88-304c-40-84-51-98-103-101v-20h216v20c-44 1-63 10-63 30 0 11 2 15 25 65L271-78l79-199c22-54 27-71 27-86 0-30-16-40-67-42v-20h178v20c-52 8-67 28-111 138L238 81c-37 94-45 111-62 136-17 23-33 33-54 33-24 0-43-16-43-37s14-33 48-42" id="W"/><path fill="#666" d="M11 0v-20c35 1 61-6 75-22 14-15 14-16 14-95v-434c0-65 0-65-6-72-6-10-55-12-75-16v-18l136-44h16c2 216-4 455 3 664 8 28 34 38 78 37V0H11" id="X"/><path fill="#666" d="M418-98C381-53 308 13 227 13 122 13 40-83 40-207c0-115 76-230 209-230 86 0 128 35 154 107 7 19 24 23 21 50H111C88-151 163-39 270-40c54 0 95-22 136-71zM114-300h220c-11-70-54-116-108-116-53 0-93 41-112 116" id="Y"/><g id="o"><use transform="matrix(0.018,0,0,0.018,0,0)" xlink:href="#U"/><use transform="matrix(0.018,0,0,0.018,9.341999999999999,0)" xlink:href="#V"/><use transform="matrix(0.018,0,0,0.018,15.857999999999997,0)" xlink:href="#W"/><use transform="matrix(0.018,0,0,0.018,24.551999999999992,0)" xlink:href="#X"/><use transform="matrix(0.018,0,0,0.018,29.069999999999997,0)" xlink:href="#Y"/></g><path fill="#666" d="M348-677c248 0 415 108 415 320C763-171 614-10 401-2 301 2 134-1 23 0v-20c40 1 73-5 87-21 14-17 16-18 16-94v-398c0-64-4-80-16-95s-40-20-87-19v-20c185-7 293-10 325-10zM226-35c10 12 25 15 69 15 139 0 191-14 254-66 74-62 114-150 114-253 0-162-88-278-232-304-59-11-144-15-216-10v558c0 43 1 50 11 60" id="Z"/><path fill="#666" d="M177 13c-22 0-50-8-77-15-8 0-12 4-17 14H66L55-108h17C80-46 120-6 173-6c42 0 76-32 76-72 0-36-26-67-98-115-82-55-97-74-97-122 0-103 127-148 223-105l3 99h-19c-9-55-42-90-85-90-37 0-66 27-66 61 0 35 18 55 84 97 73 46 116 60 116 144 0 69-58 122-133 122" id="aa"/><path fill="#666" d="M226 13C114 13 41-85 40-194c0-134 111-243 247-243 67 0 120 27 120 61 0 18-14 32-32 32-33 10-87-78-125-66-74 0-138 89-138 191 0 108 64 188 151 188 53 0 89-21 131-77l16 9C366-27 301 13 226 13" id="ab"/><path fill="#666" d="M246-368c-33 0-65 69-75 81v153c0 81 0 81 10 94 8 24 62 20 101 20V0H29v-20c23 1 46-9 58-23 11-14 13-25 13-90v-216l-71-26v-18l121-43h21v113c33-45 66-139 141-98 9 5 32 10 55 16l-26 65c-22 0-70-28-95-28" id="ac"/><path fill="#666" d="M136-604c-28 0-47-17-47-42 0-23 20-40 47-40s47 17 47 41-20 41-47 41zM18-20c77-11 89-9 89-105v-179c0-56 0-55-56-67l-27-6v-17l139-48h15v317c0 62 1 68 13 83 12 14 26 19 64 22V0H18v-20" id="ad"/><path fill="#666" d="M90 114c-1-146 1-295-1-440-1-25-2-26-64-41v-21l115-70h21v103c79-57 124-78 167-78 84 0 159 95 159 200C487-70 326 60 161-14c4 59-11 208 16 225 14 18 47 20 83 19v20H7v-20c35 1 59-5 72-23 9-13 11-27 11-93zm71-200c39 36 88 59 128 59 73 0 127-70 127-165 0-106-62-189-141-189-34 0-74 19-114 53v242" id="ae"/><path fill="#666" d="M274 13C149 13 40-81 40-214c0-125 100-222 230-222 131 0 232 98 232 226C502-85 402 13 274 13zM120-244c0 128 74 232 166 232 78 0 136-74 136-172 0-123-76-227-166-227-78 0-136 71-136 167" id="af"/><g id="p"><use transform="matrix(0.018,0,0,0.018,0,0)" xlink:href="#Z"/><use transform="matrix(0.018,0,0,0.018,14.723999999999998,0)" xlink:href="#Y"/><use transform="matrix(0.018,0,0,0.018,22.896,0)" xlink:href="#aa"/><use transform="matrix(0.018,0,0,0.018,29.088,0)" xlink:href="#ab"/><use transform="matrix(0.018,0,0,0.018,37.17000000000001,0)" xlink:href="#ac"/><use transform="matrix(0.018,0,0,0.018,44.190000000000005,0)" xlink:href="#ad"/><use transform="matrix(0.018,0,0,0.018,49.212,0)" xlink:href="#ae"/><use transform="matrix(0.018,0,0,0.018,58.536,0)" xlink:href="#V"/><use transform="matrix(0.018,0,0,0.018,64.206,0)" xlink:href="#af"/><use transform="matrix(0.018,0,0,0.018,73.782,0)" xlink:href="#ac"/></g><path fill="#666" d="M13 0v-20c79-1 88-14 94-115 9-152 27-304 27-457 0-39-16-52-66-55v-20h162l259 542 257-542h158v20c-92 12-73 15-67 97l29 412c6 88 7 89 17 102 11 14 38 16 78 16V0H685v-20c99-5 98-37 91-136l-28-416L479 0h-24L180-572c-9 161-29 320-29 483 0 46 24 66 85 69V0H13" id="ag"/><path fill="#666" d="M450-117c0 86 20 68 78 54v22L392 13h-13v-77c-72 51-129 77-169 77-94 0-171-93-171-208 0-171 171-287 340-216v-183c0-56-1-56-43-61l-36-4v-18l137-44h13v604zM110-226c0 107 62 192 140 192 33 0 84-20 129-51v-237c-40-57-79-81-131-81-80 0-138 74-138 177" id="ah"/><path fill="#666" d="M203 13C132 13 90-27 90-126v-210c7-38-30-46-67-54v-16l138-30v251c0 75 0 90 16 109 57 67 140 38 209-22v-199c0-55-1-62-7-72-7-12-9-14-55-21l-32-5v-15l165-26v359c-3 51 38 30 72 27v19L386 13v-87c-78 57-141 87-183 87" id="ai"/><g id="q"><use transform="matrix(0.018,0,0,0.018,0,0)" xlink:href="#ag"/><use transform="matrix(0.018,0,0,0.018,17.514,0)" xlink:href="#af"/><use transform="matrix(0.018,0,0,0.018,27.27,0)" xlink:href="#ah"/><use transform="matrix(0.018,0,0,0.018,36.91799999999999,0)" xlink:href="#ai"/><use transform="matrix(0.018,0,0,0.018,46.96199999999999,0)" xlink:href="#X"/><use transform="matrix(0.018,0,0,0.018,51.47999999999999,0)" xlink:href="#Y"/></g><g id="r"><use transform="matrix(0.015555555555555557,0,0,0.015555555555555557,0,0)" xlink:href="#A"/><use transform="matrix(0.015555555555555557,0,0,0.015555555555555557,12.024444444444445,0)" xlink:href="#B"/><use transform="matrix(0.015555555555555557,0,0,0.015555555555555557,20.86,0)" xlink:href="#C"/><use transform="matrix(0.015555555555555557,0,0,0.015555555555555557,27.3,0)" xlink:href="#D"/></g><path fill="#333" d="M370-365c102 3 83-14 101-81h20v205h-20c-3-28-8-47-17-62-12-21-20-23-87-23H216v195c0 53 2 66 10 77 16 26 130 15 179 15 78 0 97-5 117-28 17-20 33-55 42-93h20L567 0H-4v-21c45 1 94-3 110-17 17-15 21-26 21-97v-397c0-66-3-79-15-94-15-18-54-23-94-21v-20h515l9 149h-20c-5-39-15-69-27-89-14-23-23-25-92-25H216v267h154" id="aj"/><path fill="#333" d="M657-436c149-1 101 215 101 367 0 42 30 51 92 49V0H609v-20c49 1 70-7 75-47 4-31 16-253-6-280-13-29-38-46-69-46-33 0-91 25-144 62v197c0 81 1 81 10 94 10 15 27 21 58 20V0H314v-20c29 1 53-8 67-23 21-21 13-159 13-214 0-71-1-79-11-99-11-23-39-38-68-38-33 0-71 16-144 62v198c0 81 1 80 10 94 10 16 29 21 66 20V0H24v-20c28 1 51-8 63-23 24-30 13-175 13-238 0-55-2-64-4-72-3-12-41-20-69-21v-18l128-46h16v86c87-58 148-84 193-84 51 0 89 33 99 85 91-58 152-85 194-85" id="ak"/><path fill="#333" d="M80-7v-582c-2-74 7-48-44-65l-30-5v-19l129-43h16v362c78-55 125-77 164-77 93 0 174 95 174 206C489-91 381 13 237 13 202 13 133 4 80-7zm91-59c21 31 56 48 97 48 88 0 150-75 150-182s-63-188-146-188c-34 0-71 16-121 51 5 77-13 241 20 271" id="al"/><path fill="#333" d="M177-190C167-65 218 103 67 71c-23-6-38-20-44-43l32-5c15 47 100 32 89-28v-30C133-14 115 1 83 1 29 1 15-40 15-95c0-56 16-97 71-98 29-1 48 16 59 35 1-10 0-23 2-32h30zM94-22c36 0 50-32 50-73 0-42-14-75-50-75-39 0-46 34-46 75s6 73 46 73" id="am"/><g id="s"><use transform="matrix(0.015555555555555557,0,0,0.015555555555555557,0,0)" xlink:href="#aj"/><use transform="matrix(0.015555555555555557,0,0,0.015555555555555557,9.8,0)" xlink:href="#ak"/><use transform="matrix(0.015555555555555557,0,0,0.015555555555555557,23.068888888888893,0)" xlink:href="#al"/><use transform="matrix(0.015555555555555557,0,0,0.015555555555555557,31.29777777777778,0)" xlink:href="#z"/><use transform="matrix(0.015555555555555557,0,0,0.015555555555555557,38.422222222222224,0)" xlink:href="#T"/><use transform="matrix(0.015555555555555557,0,0,0.015555555555555557,46.71333333333334,0)" xlink:href="#T"/><use transform="matrix(0.015555555555555557,0,0,0.015555555555555557,55.05111111111112,0)" xlink:href="#x"/><use transform="matrix(0.015555555555555557,0,0,0.015555555555555557,59.39111111111112,0)" xlink:href="#y"/><use transform="matrix(0.04320987654320988,0,0,0.04320987654320988,68.13333333333334,0)" xlink:href="#am"/></g><g id="t"><use transform="matrix(0.015555555555555557,0,0,0.015555555555555557,0,0)" xlink:href="#M"/><use transform="matrix(0.015555555555555557,0,0,0.015555555555555557,8.275555555555556,0)" xlink:href="#Q"/><use transform="matrix(0.015555555555555557,0,0,0.015555555555555557,16.660000000000004,0)" xlink:href="#L"/><use transform="matrix(0.015555555555555557,0,0,0.015555555555555557,21.622222222222227,0)" xlink:href="#K"/><use transform="matrix(0.015555555555555557,0,0,0.015555555555555557,29.711111111111116,0)" xlink:href="#Q"/><use transform="matrix(0.015555555555555557,0,0,0.015555555555555557,38.09555555555556,0)" xlink:href="#L"/></g><g id="u"><use transform="matrix(0.015555555555555557,0,0,0.015555555555555557,0,0)" xlink:href="#R"/><use transform="matrix(0.015555555555555557,0,0,0.015555555555555557,4.277777777777779,0)" xlink:href="#C"/><use transform="matrix(0.015555555555555557,0,0,0.015555555555555557,10.826666666666668,0)" xlink:href="#I"/><use transform="matrix(0.015555555555555557,0,0,0.015555555555555557,16.03777777777778,0)" xlink:href="#L"/></g><g id="v"><use transform="matrix(0.015555555555555557,0,0,0.015555555555555557,0,0)" xlink:href="#z"/><use transform="matrix(0.015555555555555557,0,0,0.015555555555555557,6.860000000000001,0)" xlink:href="#R"/><use transform="matrix(0.015555555555555557,0,0,0.015555555555555557,10.764444444444447,0)" xlink:href="#z"/><use transform="matrix(0.015555555555555557,0,0,0.015555555555555557,17.71777777777778,0)" xlink:href="#ak"/><use transform="matrix(0.015555555555555557,0,0,0.015555555555555557,30.831111111111113,0)" xlink:href="#z"/><use transform="matrix(0.015555555555555557,0,0,0.015555555555555557,37.75333333333334,0)" xlink:href="#y"/><use transform="matrix(0.015555555555555557,0,0,0.015555555555555557,46.21555555555556,0)" xlink:href="#L"/></g></defs></g></svg>