<svg xmlns="http://www.w3.org/2000/svg" xmlns:xlink="http://www.w3.org/1999/xlink" xmlns:lucid="lucid" width="893" height="262"><g transform="translate(-171 -87)" lucid:page-tab-id="0_0"><path d="M240 200h100v87.5H240z" stroke="#c7e8ac" stroke-width="2" fill="#e9f8dc"/><use xlink:href="#a" transform="matrix(1,0,0,1,245,205) translate(3.062222222222225 34.675555555555555)"/><use xlink:href="#b" transform="matrix(1,0,0,1,245,205) translate(2.6655555555555566 50.23111111111111)"/><use xlink:href="#c" transform="matrix(1,0,0,1,245,205) translate(51.245555555555555 50.23111111111111)"/><path d="M189 145h200v50H189z" stroke="#000" stroke-opacity="0" stroke-width="2" fill="#fff" fill-opacity="0"/><use xlink:href="#d" transform="matrix(1,0,0,1,194,150) translate(75.85888888888888 23.453333333333333)"/><path d="M100 220h200v50H100z" stroke="#000" stroke-opacity="0" stroke-width="2" fill="#fff" fill-opacity="0"/><use xlink:href="#e" transform="matrix(6.123233995736766e-17,1,-1,6.123233995736766e-17,295,224.99999999999994) translate(3.2333333333333307 98.45333333333335)"/><path d="M225.06 220v33.38" stroke="#666" fill="none"/><path fill="#666"/><path d="M225.06 268.38l-4.64-14.26h9.27z" fill="#666"/><path d="M225.06 270l-5.33-16.38h10.65zm-3.95-15.38l3.96 12.14 3.94-12.14z" fill="#666"/><path d="M258.45 185h53M258.45 185h-3" stroke="#666" fill="none"/><path d="M326.44 185l-14.27 4.64v-9.28z" stroke="#666" fill="#666"/><path d="M503 145h100v39H503z" stroke="#c7e8ac" stroke-width="2" fill="#e9f8dc"/><use xlink:href="#f" transform="matrix(1,0,0,1,508,150) translate(30.377777777777773 17.953333333333333)"/><path d="M503 195h100v39H503z" stroke="#c7e8ac" stroke-width="2" fill="#e9f8dc"/><use xlink:href="#f" transform="matrix(1,0,0,1,508,200) translate(30.377777777777773 17.953333333333333)"/><path d="M503 287.5h100v39H503z" stroke="#c7e8ac" stroke-width="2" fill="#e9f8dc"/><use xlink:href="#f" transform="matrix(1,0,0,1,508,292.5) translate(30.377777777777773 17.953333333333333)"/><path d="M433 232h240v60H433z" stroke="#000" stroke-opacity="0" stroke-width="2" fill="#fff" fill-opacity="0"/><use xlink:href="#g" transform="matrix(1,0,0,1,438,237) translate(107.467 28.996)"/><path d="M659.88 145h146.25v39H659.88z" stroke="#3aa6dd" stroke-width="2" fill="#c1e4f7"/><use xlink:href="#h" transform="matrix(1,0,0,1,664.875,150) translate(21.546999999999997 18.496)"/><use xlink:href="#i" transform="matrix(1,0,0,1,664.875,150) translate(64.08099999999999 18.496)"/><path d="M659.88 193h146.25v39H659.88z" stroke="#3aa6dd" stroke-width="2" fill="#c1e4f7"/><use xlink:href="#h" transform="matrix(1,0,0,1,664.875,198) translate(21.546999999999997 18.496)"/><use xlink:href="#i" transform="matrix(1,0,0,1,664.875,198) translate(64.08099999999999 18.496)"/><path d="M659.88 287.5h146.25v39H659.88z" stroke="#3aa6dd" stroke-width="2" fill="#c1e4f7"/><use xlink:href="#h" transform="matrix(1,0,0,1,664.875,292.5) translate(21.546999999999997 18.496)"/><use xlink:href="#i" transform="matrix(1,0,0,1,664.875,292.5) translate(64.08099999999999 18.496)"/><path d="M604 164.5h38.26" stroke="#666" fill="none"/><path d="M604 165h-1v-1h1zM657.26 164.5L643 169.14v-9.28z" fill="#666"/><path d="M658.88 164.5l-16.4 5.32v-10.64zm-15.4 3.95l12.16-3.95-12.15-3.95z" fill="#666"/><path d="M604 214.5h38.26" stroke="#666" fill="none"/><path d="M604 215h-1v-1h1zM657.26 214.5L643 219.14v-9.28z" fill="#666"/><path d="M658.88 214.5l-16.4 5.32v-10.64zm-15.4 3.95l12.16-3.95-12.15-3.95z" fill="#666"/><path d="M604 307h38.26" stroke="#666" fill="none"/><path d="M604 307.5h-1v-1h1zM657.26 307L643 311.64v-9.28z" fill="#666"/><path d="M658.88 307l-16.4 5.32v-10.64zm-15.4 3.95l12.16-3.95-12.15-3.95z" fill="#666"/><path d="M613 232h240v60H613z" stroke="#000" stroke-opacity="0" stroke-width="2" fill="#fff" fill-opacity="0"/><use xlink:href="#g" transform="matrix(1,0,0,1,618,237) translate(107.467 28.996)"/><path d="M604 164.5h38.26" stroke="#666" fill="none"/><path d="M657.26 164.5L643 169.14v-9.28z" stroke="#666" fill="#666"/><path d="M883 145h146.25v39H883z" stroke="#b2b2b2" stroke-width="2" fill="#f2f2f2"/><use xlink:href="#j" transform="matrix(1,0,0,1,888,150) translate(17.267777777777766 17.953333333333333)"/><use xlink:href="#k" transform="matrix(1,0,0,1,888,150) translate(50.401111111111106 17.953333333333333)"/><path d="M883 193h146.25v39H883z" stroke="#b2b2b2" stroke-width="2" fill="#f2f2f2"/><use xlink:href="#j" transform="matrix(1,0,0,1,888,198) translate(17.267777777777766 17.953333333333333)"/><use xlink:href="#k" transform="matrix(1,0,0,1,888,198) translate(50.401111111111106 17.953333333333333)"/><path d="M883 287.5h146.25v39H883z" stroke="#b2b2b2" stroke-width="2" fill="#f2f2f2"/><use xlink:href="#j" transform="matrix(1,0,0,1,888,292.5) translate(17.267777777777766 17.953333333333333)"/><use xlink:href="#k" transform="matrix(1,0,0,1,888,292.5) translate(50.401111111111106 17.953333333333333)"/><path d="M836.13 232h240v60h-240z" stroke="#000" stroke-opacity="0" stroke-width="2" fill="#fff" fill-opacity="0"/><use xlink:href="#g" transform="matrix(1,0,0,1,841.125,237) translate(107.467 28.996)"/><path d="M807.13 164.5h58.25" stroke="#666" fill="none"/><path d="M807.13 165h-1v-1h1zM880.38 164.5l-14.26 4.64v-9.28z" fill="#666"/><path d="M882 164.5l-16.38 5.32v-10.64zm-15.38 3.95l12.14-3.95-12.14-3.95z" fill="#666"/><path d="M807.13 212.5h58.25" stroke="#666" fill="none"/><path d="M807.13 213h-1v-1h1zM880.38 212.5l-14.26 4.64v-9.28z" fill="#666"/><path d="M882 212.5l-16.38 5.32v-10.64zm-15.38 3.95l12.14-3.95-12.14-3.95z" fill="#666"/><path d="M807.13 307h58.25" stroke="#666" fill="none"/><path d="M807.13 307.5h-1v-1h1zM880.38 307l-14.26 4.64v-9.28z" fill="#666"/><path d="M882 307l-16.38 5.32v-10.64zm-15.38 3.95l12.14-3.95-12.14-3.95z" fill="#666"/><path d="M400 160h80v160h-80z" fill="none"/><path d="M480 320c-5.52 0-10-4.48-10-10v-60c0-5.52-4.48-10-10-10 5.52 0 10-4.48 10-10v-60c0-5.52 4.48-10 10-10" stroke="#666" stroke-width="2" fill="none"/><path d="M492 135.5h551V189H492z" fill-opacity="0"/><path d="M504.15 135.5h8.1m8.1 0h8.1m8.12 0h8.1m8.1 0h8.1m8.1 0h8.1m8.1 0h8.12m8.1 0h8.1m8.1 0h8.1m8.1 0h8.1m8.1 0h8.1m8.1 0h8.12m8.1 0h8.1m8.1 0h8.1m8.1 0h8.1m8.12 0h8.1m8.1 0h8.1m8.1 0h8.1m8.1 0h8.12m8.1 0h8.1m8.1 0h8.1m8.1 0h8.12m8.1 0h8.1m8.1 0h8.1m8.1 0h8.1m8.12 0h8.1m8.1 0h8.1m8.1 0h8.1m8.1 0h8.12m8.1 0h8.1m8.1 0h8.1m8.1 0h8.1m8.12 0h8.1m8.1 0h8.1m8.1 0h4.06v4.46m0 8.9v8.93m0 8.9v8.92m0 8.92V189h-4.05m-8.1 0h-8.1m-8.1 0h-8.1m-8.12 0h-8.1m-8.1 0h-8.1m-8.1 0h-8.1m-8.1 0h-8.12m-8.1 0h-8.1m-8.1 0h-8.1m-8.1 0h-8.1m-8.1 0h-8.1m-8.1 0h-8.12m-8.1 0h-8.1m-8.1 0h-8.1m-8.1 0h-8.1m-8.12 0h-8.1m-8.1 0h-8.1m-8.1 0h-8.1m-8.1 0h-8.12m-8.1 0h-8.1m-8.1 0h-8.1m-8.1 0h-8.12m-8.1 0h-8.1m-8.1 0h-8.1m-8.1 0H650m-8.12 0h-8.1m-8.1 0h-8.1m-8.1 0h-8.1m-8.1 0h-8.12m-8.1 0h-8.1m-8.1 0h-8.1m-8.1 0h-8.1m-8.12 0h-8.1m-8.1 0h-8.1m-8.1 0H492v-4.46m0-8.92v-8.9m0-8.93v-8.93m0-8.9v-4.47h4.05" stroke="#666" stroke-width="2" fill="none"/><path d="M823 85h240v60H823z" stroke="#000" stroke-opacity="0" stroke-width="2" fill="#fff" fill-opacity="0"/><use xlink:href="#l" transform="matrix(1,0,0,1,828,90) translate(22.674999999999983 28.6)"/><use xlink:href="#m" transform="matrix(1,0,0,1,828,90) translate(61.624999999999986 28.6)"/><use xlink:href="#n" transform="matrix(1,0,0,1,828,90) translate(148.425 28.6)"/><path d="M186.88 350.25h146.25v39H186.88z" stroke="#b2b2b2" stroke-width="2" fill="#f2f2f2"/><use xlink:href="#j" transform="matrix(1,0,0,1,191.875,355.25) translate(17.267777777777766 17.953333333333333)"/><use xlink:href="#k" transform="matrix(1,0,0,1,191.875,355.25) translate(50.401111111111106 17.953333333333333)"/><path d="M350 357h80v160h-80z" fill="none"/><path d="M350 517c5.52 0 10-4.48 10-10v-60c0-5.52 4.48-10 10-10-5.52 0-10-4.48-10-10v-60c0-5.52-4.48-10-10-10" stroke="#666" stroke-width="2" fill="none"/><path d="M380 368.83h659V503H380z" fill-opacity="0"/><path d="M392.05 368.83h8.04m8.03 0h8.03m8.04 0h8.04m8.03 0h8.04m8.05 0h8.03m8.04 0h8.04m8.03 0h8.03m8.04 0h8.03m8.04 0h8.04m8.03 0h8.05m8.04 0h8.02m8.04 0h8.04m8.03 0h8.04m8.04 0h8.04m8.04 0h8.04m8.03 0h8.04m8.03 0h8.03m8.04 0h8.04m8.03 0h8.04m8.05 0h8.03m8.04 0h8.04m8.03 0h8.03m8.04 0h8.03m8.04 0h8.04m8.03 0h8.05m8.04 0h8.02m8.04 0H818m8.03 0h8.04m8.04 0h8.04m8.04 0h8.04m8.03 0h8.04m8.03 0h8.03m8.04 0h8.04m8.03 0h8.04m8.05 0h8.03m8.04 0h8.04m8.03 0h8.03m8.04 0h8.03m8.04 0h8.04m8.03 0h8.05m8.04 0h4v4.2m0 8.38v8.4m0 8.38v8.4m0 8.37v8.4m0 8.37v8.4m0 8.37v8.38m0 8.4v8.37m0 8.4v8.37m0 8.4V503h-4m-8.05 0h-8.04m-8.02 0h-8.04m-8.04 0h-8.03m-8.04 0h-8.04m-8.04 0h-8.04m-8.04 0h-8.03m-8.04 0h-8.03m-8.03 0h-8.04m-8.04 0h-8.03m-8.04 0h-8.05m-8.03 0h-8.04m-8.04 0h-8.03m-8.03 0h-8.04m-8.03 0h-8.04m-8.04 0h-8.03m-8.05 0h-8.04m-8.02 0h-8.04m-8.04 0h-8.03m-8.04 0h-8.04m-8.04 0h-8.04m-8.04 0h-8.03m-8.04 0h-8.03m-8.03 0h-8.04m-8.04 0h-8.03m-8.04 0h-8.05m-8.03 0h-8.04m-8.04 0H601m-8.03 0h-8.04m-8.03 0h-8.04m-8.04 0h-8.03m-8.05 0h-8.04m-8.02 0h-8.04m-8.04 0h-8.03m-8.04 0h-8.04m-8.04 0h-8.04m-8.04 0h-8.03m-8.04 0h-8.03m-8.03 0h-8.04m-8.04 0h-8.03m-8.04 0h-8.05m-8.03 0H380v-4.2m0-8.38v-8.38m0-8.4v-8.37m0-8.4v-8.38m0-8.4v-8.38m0-8.38v-8.4m0-8.37v-8.4m0-8.37v-8.4m0-8.37v-4.2h4.02" stroke="#666" stroke-width="2" fill="none"/><path d="M413 160h34.75v160H413z" stroke="#b2b2b2" stroke-width="2" fill="#e5e5e5"/><g><use xlink:href="#o" transform="matrix(6.123233995736766e-17,1,-1,6.123233995736766e-17,442.75,164.99999999999997) translate(18.233456790123455 15.61111111111111)"/><use xlink:href="#p" transform="matrix(6.123233995736766e-17,1,-1,6.123233995736766e-17,442.75,164.99999999999997) translate(54.99123456790123 15.61111111111111)"/></g><path d="M341 243.75h54.38" stroke="#666" fill="none"/><path d="M341 244.25h-1v-1h1zM410.38 243.75l-14.26 4.64v-9.3z" fill="#666"/><path d="M412 243.75l-16.38 5.32v-10.64zm-15.38 3.95l12.14-3.95-12.14-3.95z" fill="#666"/><defs><path fill="#333" d="M40 0v-20c38-3 75-4 79-20 8-12 8-12 8-88v-429c0-60-1-64-11-76-11-13-15-14-67-14H23v-20c247-16 533-47 544 179 7 155-168 235-351 197 3 66-8 201 10 241 12 27 64 33 112 30V0H40zm427-490c0-138-103-189-251-162v341c139 35 251-49 251-179" id="q"/><path fill="#333" d="M246-368c-33 0-65 69-75 81v153c0 81 0 81 10 94 8 24 62 20 101 20V0H29v-20c23 1 46-9 58-23 11-14 13-25 13-90v-216l-71-26v-18l121-43h21v113c33-45 66-139 141-98 9 5 32 10 55 16l-26 65c-22 0-70-28-95-28" id="r"/><path fill="#333" d="M418-98C381-53 308 13 227 13 122 13 40-83 40-207c0-115 76-230 209-230 86 0 128 35 154 107 7 19 24 23 21 50H111C88-151 163-39 270-40c54 0 95-22 136-71zM114-300h220c-11-70-54-116-108-116-53 0-93 41-112 116" id="s"/><path fill="#333" d="M90 114c-1-146 1-295-1-440-1-25-2-26-64-41v-21l115-70h21v103c79-57 124-78 167-78 84 0 159 95 159 200C487-70 326 60 161-14c4 59-11 208 16 225 14 18 47 20 83 19v20H7v-20c35 1 59-5 72-23 9-13 11-27 11-93zm71-200c39 36 88 59 128 59 73 0 127-70 127-165 0-106-62-189-141-189-34 0-74 19-114 53v242" id="t"/><path fill="#333" d="M274 13C149 13 40-81 40-214c0-125 100-222 230-222 131 0 232 98 232 226C502-85 402 13 274 13zM120-244c0 128 74 232 166 232 78 0 136-74 136-172 0-123-76-227-166-227-78 0-136 71-136 167" id="u"/><path fill="#333" d="M226 13C114 13 41-85 40-194c0-134 111-243 247-243 67 0 120 27 120 61 0 18-14 32-32 32-33 10-87-78-125-66-74 0-138 89-138 191 0 108 64 188 151 188 53 0 89-21 131-77l16 9C366-27 301 13 226 13" id="v"/><path fill="#333" d="M177 13c-22 0-50-8-77-15-8 0-12 4-17 14H66L55-108h17C80-46 120-6 173-6c42 0 76-32 76-72 0-36-26-67-98-115-82-55-97-74-97-122 0-103 127-148 223-105l3 99h-19c-9-55-42-90-85-90-37 0-66 27-66 61 0 35 18 55 84 97 73 46 116 60 116 144 0 69-58 122-133 122" id="w"/><path fill="#333" d="M450-117c0 86 20 68 78 54v22L392 13h-13v-77c-72 51-129 77-169 77-94 0-171-93-171-208 0-171 171-287 340-216v-183c0-56-1-56-43-61l-36-4v-18l137-44h13v604zM110-226c0 107 62 192 140 192 33 0 84-20 129-51v-237c-40-57-79-81-131-81-80 0-138 74-138 177" id="x"/><g id="a"><use transform="matrix(0.015555555555555557,0,0,0.015555555555555557,0,0)" xlink:href="#q"/><use transform="matrix(0.015555555555555557,0,0,0.015555555555555557,9.411111111111111,0)" xlink:href="#r"/><use transform="matrix(0.015555555555555557,0,0,0.015555555555555557,14.855555555555556,0)" xlink:href="#s"/><use transform="matrix(0.015555555555555557,0,0,0.015555555555555557,21.824444444444445,0)" xlink:href="#t"/><use transform="matrix(0.015555555555555557,0,0,0.015555555555555557,29.866666666666667,0)" xlink:href="#r"/><use transform="matrix(0.015555555555555557,0,0,0.015555555555555557,35.31111111111111,0)" xlink:href="#u"/><use transform="matrix(0.015555555555555557,0,0,0.015555555555555557,43.742222222222225,0)" xlink:href="#v"/><use transform="matrix(0.015555555555555557,0,0,0.015555555555555557,50.72666666666667,0)" xlink:href="#s"/><use transform="matrix(0.015555555555555557,0,0,0.015555555555555557,57.788888888888884,0)" xlink:href="#w"/><use transform="matrix(0.015555555555555557,0,0,0.015555555555555557,63.06222222222222,0)" xlink:href="#w"/><use transform="matrix(0.015555555555555557,0,0,0.015555555555555557,68.41333333333333,0)" xlink:href="#s"/><use transform="matrix(0.015555555555555557,0,0,0.015555555555555557,75.53777777777778,0)" xlink:href="#x"/></g><path fill="#333" d="M257 17c-35 0-103-28-150-28-9 0-15 3-20 11H69L47-163h21C91-71 153-15 248-12c119 4 193-116 119-204-19-37-229-152-254-187-39-35-60-79-60-125 0-90 81-156 191-156 44 0 107 20 146 27 10 2 17-15 35-10l19 136h-19c-29-77-98-128-173-128-116 0-156 120-77 188 27 23 40 35 118 84 142 90 184 140 184 221 0 105-94 183-220 183" id="y"/><path fill="#333" d="M203 13C132 13 90-27 90-126v-210c7-38-30-46-67-54v-16l138-30v251c0 75 0 90 16 109 57 67 140 38 209-22v-199c0-55-1-62-7-72-7-12-9-14-55-21l-32-5v-15l165-26v359c-3 51 38 30 72 27v19L386 13v-87c-78 57-141 87-183 87" id="z"/><g id="b"><use transform="matrix(0.015555555555555557,0,0,0.015555555555555557,0,0)" xlink:href="#y"/><use transform="matrix(0.015555555555555557,0,0,0.015555555555555557,8.275555555555556,0)" xlink:href="#u"/><use transform="matrix(0.015555555555555557,0,0,0.015555555555555557,16.551111111111112,0)" xlink:href="#z"/><use transform="matrix(0.015555555555555557,0,0,0.015555555555555557,25.23111111111111,0)" xlink:href="#r"/><use transform="matrix(0.015555555555555557,0,0,0.015555555555555557,30.582222222222224,0)" xlink:href="#v"/><use transform="matrix(0.015555555555555557,0,0,0.015555555555555557,37.56666666666667,0)" xlink:href="#s"/></g><path fill="#333" d="M674-11c-46-12-174 28-243 28C214 17 57-126 57-325c0-209 161-359 385-359 77 0 154 25 227 44 8 2 20-9 35-6l9 154h-20c-36-100-134-166-245-166-171 1-291 130-291 310 0 190 132 336 305 336 114 0 200-52 260-156h21c-11 39-45 118-69 157" id="A"/><g id="c"><use transform="matrix(0.015555555555555557,0,0,0.015555555555555557,0,0)" xlink:href="#A"/><use transform="matrix(0.015555555555555557,0,0,0.015555555555555557,12.273333333333333,0)" xlink:href="#u"/><use transform="matrix(0.015555555555555557,0,0,0.015555555555555557,20.704444444444444,0)" xlink:href="#x"/><use transform="matrix(0.015555555555555557,0,0,0.015555555555555557,28.964444444444446,0)" xlink:href="#s"/></g><path fill="#333" d="M467-254c0 55-3 144-5 192-1 34 24 43 81 42V0H312v-20c107 2 84-88 84-199 0-79-4-106-17-129-17-29-46-45-83-45-36 0-62 10-125 46v213c0 81 1 81 10 94 10 15 26 20 60 20V0H27v-20c31-1 47-8 60-23 11-13 13-26 13-90v-449c0-55 0-55-6-62-3-9-48-12-68-14v-19l129-44h16v352c87-51 132-68 178-68 98 0 118 61 118 183" id="B"/><path fill="#333" d="M255-52c-39 28-89 75-129 65-56 0-95-36-95-88 0-54 33-80 126-105 41-11 68-23 96-41v-85c7-65-33-99-79-99-38 0-82 36-60 72l-73 36c-23-58 109-139 155-139 43 0 88 24 112 56 34 46 3 251 20 323 3 12 12 18 25 18 16 0 29-6 52-23l5 15c-40 36-83 60-106 60-30 0-47-23-49-65zm-92 27c14 8 60-30 90-47v-128c-19 11-32 17-93 42-43 18-60 38-60 70 0 35 28 63 63 63" id="C"/><g id="d"><use transform="matrix(0.015555555555555557,0,0,0.015555555555555557,0,0)" xlink:href="#A"/><use transform="matrix(0.015555555555555557,0,0,0.015555555555555557,12.024444444444445,0)" xlink:href="#B"/><use transform="matrix(0.015555555555555557,0,0,0.015555555555555557,20.86,0)" xlink:href="#C"/><use transform="matrix(0.015555555555555557,0,0,0.015555555555555557,27.3,0)" xlink:href="#r"/><use transform="matrix(0.015555555555555557,0,0,0.015555555555555557,32.93111111111111,0)" xlink:href="#w"/></g><path fill="#333" d="M24 0v-19c40 1 80-1 89-17 14-15 14-21 14-104v-392c0-76-2-77-16-94-14-16-45-22-84-21v-20h317v20c-15 1-20 2-40 2-87 3-88 5-88 108v436c0 58 3 62 55 62h120c79 0 87-4 141-73l35-45h19L504 0H24" id="D"/><path fill="#333" d="M136-604c-28 0-47-17-47-42 0-23 20-40 47-40s47 17 47 41-20 41-47 41zM18-20c77-11 89-9 89-105v-179c0-56 0-55-56-67l-27-6v-17l139-48h15v317c0 62 1 68 13 83 12 14 26 19 64 22V0H18v-20" id="E"/><path fill="#333" d="M313-387c-24-9-119 47-142 64v189c0 81 1 80 10 94 10 15 27 20 62 20V0H28v-20c24 1 47-9 59-23 23-29 13-170 13-231 0-106 10-71-69-100v-16l124-46h16v93c77-55 147-87 189-87 146 0 113 207 103 365-2 38 28 47 84 45V0H316v-20c46-4 61-12 70-36 8-21 14-117 14-209 0-77-24-117-87-122" id="F"/><g id="e"><use transform="matrix(0.015555555555555557,0,0,0.015555555555555557,0,0)" xlink:href="#D"/><use transform="matrix(0.015555555555555557,0,0,0.015555555555555557,9.24,0)" xlink:href="#E"/><use transform="matrix(0.015555555555555557,0,0,0.015555555555555557,13.580000000000002,0)" xlink:href="#F"/><use transform="matrix(0.015555555555555557,0,0,0.015555555555555557,22.120000000000005,0)" xlink:href="#s"/><use transform="matrix(0.015555555555555557,0,0,0.015555555555555557,29.18222222222223,0)" xlink:href="#w"/></g><g id="f"><use transform="matrix(0.015555555555555557,0,0,0.015555555555555557,0,0)" xlink:href="#D"/><use transform="matrix(0.015555555555555557,0,0,0.015555555555555557,9.24,0)" xlink:href="#E"/><use transform="matrix(0.015555555555555557,0,0,0.015555555555555557,13.580000000000002,0)" xlink:href="#F"/><use transform="matrix(0.015555555555555557,0,0,0.015555555555555557,22.120000000000005,0)" xlink:href="#s"/></g><path d="M84-39c0-28 24-50 55-50 33 0 56 22 56 51 0 30-23 51-56 51-32 0-55-22-55-52" id="G"/><g id="g"><use transform="matrix(0.018,0,0,0.018,0,0)" xlink:href="#G"/><use transform="matrix(0.018,0,0,0.018,5.021999999999999,0)" xlink:href="#G"/><use transform="matrix(0.018,0,0,0.018,10.043999999999999,0)" xlink:href="#G"/></g><g id="h"><use transform="matrix(0.018,0,0,0.018,0,0)" xlink:href="#A"/><use transform="matrix(0.018,0,0,0.018,13.913999999999996,0)" xlink:href="#B"/><use transform="matrix(0.018,0,0,0.018,24.137999999999998,0)" xlink:href="#C"/><use transform="matrix(0.018,0,0,0.018,31.589999999999996,0)" xlink:href="#r"/></g><path fill="#333" d="M195 0v-20c43 1 92-1 107-21 13-17 16-19 16-94v-493H155c-55 0-59 2-75 25-11 17-20 46-28 93H33l17-174h19c7 16 11 17 64 17h459c53 0 57-1 64-17h19l17 174h-19c-9-53-19-81-32-98-15-19-18-20-71-20H407v493c0 76 3 77 16 94 15 19 63 22 105 21V0H195" id="H"/><path fill="#333" d="M13 0v-20c79-1 88-14 94-115 9-152 27-304 27-457 0-39-16-52-66-55v-20h162l259 542 257-542h158v20c-92 12-73 15-67 97l29 412c6 88 7 89 17 102 11 14 38 16 78 16V0H685v-20c99-5 98-37 91-136l-28-416L479 0h-24L180-572c-9 161-29 320-29 483 0 46 24 66 85 69V0H13" id="I"/><g id="i"><use transform="matrix(0.018,0,0,0.018,0,0)" xlink:href="#D"/><use transform="matrix(0.018,0,0,0.018,11.177999999999999,0)" xlink:href="#y"/><use transform="matrix(0.018,0,0,0.018,20.628,0)" xlink:href="#H"/><use transform="matrix(0.018,0,0,0.018,33.678,0)" xlink:href="#I"/></g><g id="j"><use transform="matrix(0.015555555555555557,0,0,0.015555555555555557,0,0)" xlink:href="#D"/><use transform="matrix(0.015555555555555557,0,0,0.015555555555555557,9.24,0)" xlink:href="#E"/><use transform="matrix(0.015555555555555557,0,0,0.015555555555555557,13.580000000000002,0)" xlink:href="#F"/><use transform="matrix(0.015555555555555557,0,0,0.015555555555555557,22.120000000000005,0)" xlink:href="#s"/></g><path fill="#333" d="M348-677c248 0 415 108 415 320C763-171 614-10 401-2 301 2 134-1 23 0v-20c40 1 73-5 87-21 14-17 16-18 16-94v-398c0-64-4-80-16-95s-40-20-87-19v-20c185-7 293-10 325-10zM226-35c10 12 25 15 69 15 139 0 191-14 254-66 74-62 114-150 114-253 0-162-88-278-232-304-59-11-144-15-216-10v558c0 43 1 50 11 60" id="J"/><path fill="#333" d="M103-41C88-65 87-77 87-154v-224H38v-17c40-19 81-73 102-136h18v106h153l-17 47H158v199c0 77 2 91 16 109 41 51 89 42 121-21l17 15C277 22 157 46 103-41" id="K"/><g id="k"><use transform="matrix(0.015555555555555557,0,0,0.015555555555555557,0,0)" xlink:href="#J"/><use transform="matrix(0.015555555555555557,0,0,0.015555555555555557,12.724444444444446,0)" xlink:href="#s"/><use transform="matrix(0.015555555555555557,0,0,0.015555555555555557,19.78666666666667,0)" xlink:href="#w"/><use transform="matrix(0.015555555555555557,0,0,0.015555555555555557,25.13777777777778,0)" xlink:href="#v"/><use transform="matrix(0.015555555555555557,0,0,0.015555555555555557,32.12222222222223,0)" xlink:href="#r"/><use transform="matrix(0.015555555555555557,0,0,0.015555555555555557,38.1888888888889,0)" xlink:href="#E"/><use transform="matrix(0.015555555555555557,0,0,0.015555555555555557,42.5288888888889,0)" xlink:href="#t"/><use transform="matrix(0.015555555555555557,0,0,0.015555555555555557,50.58666666666668,0)" xlink:href="#K"/><use transform="matrix(0.015555555555555557,0,0,0.015555555555555557,55.48666666666668,0)" xlink:href="#u"/><use transform="matrix(0.015555555555555557,0,0,0.015555555555555557,63.76222222222224,0)" xlink:href="#r"/></g><path fill="#666" d="M30 0v-248h33v221h125V0H30" id="L"/><path fill="#666" d="M24-231v-30h32v30H24zM24 0v-190h32V0H24" id="M"/><path fill="#666" d="M117-194c89-4 53 116 60 194h-32v-121c0-31-8-49-39-48C34-167 62-67 57 0H25l-1-190h30c1 10-1 24 2 32 11-22 29-35 61-36" id="N"/><path fill="#666" d="M100-194c63 0 86 42 84 106H49c0 40 14 67 53 68 26 1 43-12 49-29l28 8c-11 28-37 45-77 45C44 4 14-33 15-96c1-61 26-98 85-98zm52 81c6-60-76-77-97-28-3 7-6 17-6 28h103" id="O"/><g id="l"><use transform="matrix(0.05,0,0,0.05,0,0)" xlink:href="#L"/><use transform="matrix(0.05,0,0,0.05,10,0)" xlink:href="#M"/><use transform="matrix(0.05,0,0,0.05,13.949999999999998,0)" xlink:href="#N"/><use transform="matrix(0.05,0,0,0.05,23.95,0)" xlink:href="#O"/></g><path fill="#666" d="M30-248c118-7 216 8 213 122C240-48 200 0 122 0H30v-248zM63-27c89 8 146-16 146-99s-60-101-146-95v194" id="P"/><path fill="#666" d="M135-143c-3-34-86-38-87 0 15 53 115 12 119 90S17 21 10-45l28-5c4 36 97 45 98 0-10-56-113-15-118-90-4-57 82-63 122-42 12 7 21 19 24 35" id="Q"/><path fill="#666" d="M96-169c-40 0-48 33-48 73s9 75 48 75c24 0 41-14 43-38l32 2c-6 37-31 61-74 61-59 0-76-41-82-99-10-93 101-131 147-64 4 7 5 14 7 22l-32 3c-4-21-16-35-41-35" id="R"/><path fill="#666" d="M114-163C36-179 61-72 57 0H25l-1-190h30c1 12-1 29 2 39 6-27 23-49 58-41v29" id="S"/><path fill="#666" d="M115-194c55 1 70 41 70 98S169 2 115 4C84 4 66-9 55-30l1 105H24l-1-265h31l2 30c10-21 28-34 59-34zm-8 174c40 0 45-34 45-75s-6-73-45-74c-42 0-51 32-51 76 0 43 10 73 51 73" id="T"/><path fill="#666" d="M59-47c-2 24 18 29 38 22v24C64 9 27 4 27-40v-127H5v-23h24l9-43h21v43h35v23H59v120" id="U"/><path fill="#666" d="M100-194c62-1 85 37 85 99 1 63-27 99-86 99S16-35 15-95c0-66 28-99 85-99zM99-20c44 1 53-31 53-75 0-43-8-75-51-75s-53 32-53 75 10 74 51 75" id="V"/><g id="m"><use transform="matrix(0.05,0,0,0.05,0,0)" xlink:href="#P"/><use transform="matrix(0.05,0,0,0.05,12.950000000000001,0)" xlink:href="#O"/><use transform="matrix(0.05,0,0,0.05,22.950000000000003,0)" xlink:href="#Q"/><use transform="matrix(0.05,0,0,0.05,31.950000000000003,0)" xlink:href="#R"/><use transform="matrix(0.05,0,0,0.05,40.95,0)" xlink:href="#S"/><use transform="matrix(0.05,0,0,0.05,46.900000000000006,0)" xlink:href="#M"/><use transform="matrix(0.05,0,0,0.05,50.85000000000001,0)" xlink:href="#T"/><use transform="matrix(0.05,0,0,0.05,60.85,0)" xlink:href="#U"/><use transform="matrix(0.05,0,0,0.05,65.85000000000001,0)" xlink:href="#V"/><use transform="matrix(0.05,0,0,0.05,75.85000000000001,0)" xlink:href="#S"/></g><path fill="#666" d="M240 0l2-218c-23 76-54 145-80 218h-23L58-218 59 0H30v-248h44l77 211c21-75 51-140 76-211h43V0h-30" id="W"/><path fill="#666" d="M85-194c31 0 48 13 60 33l-1-100h32l1 261h-30c-2-10 0-23-3-31C134-8 116 4 85 4 32 4 16-35 15-94c0-66 23-100 70-100zm9 24c-40 0-46 34-46 75 0 40 6 74 45 74 42 0 51-32 51-76 0-42-9-74-50-73" id="X"/><path fill="#666" d="M84 4C-5 8 30-112 23-190h32v120c0 31 7 50 39 49 72-2 45-101 50-169h31l1 190h-30c-1-10 1-25-2-33-11 22-28 36-60 37" id="Y"/><path fill="#666" d="M24 0v-261h32V0H24" id="Z"/><g id="n"><use transform="matrix(0.05,0,0,0.05,0,0)" xlink:href="#W"/><use transform="matrix(0.05,0,0,0.05,14.950000000000001,0)" xlink:href="#V"/><use transform="matrix(0.05,0,0,0.05,24.950000000000003,0)" xlink:href="#X"/><use transform="matrix(0.05,0,0,0.05,34.95,0)" xlink:href="#Y"/><use transform="matrix(0.05,0,0,0.05,44.95,0)" xlink:href="#Z"/><use transform="matrix(0.05,0,0,0.05,48.900000000000006,0)" xlink:href="#O"/></g><g id="o"><use transform="matrix(0.015555555555555557,0,0,0.015555555555555557,0,0)" xlink:href="#A"/><use transform="matrix(0.015555555555555557,0,0,0.015555555555555557,12.024444444444445,0)" xlink:href="#B"/><use transform="matrix(0.015555555555555557,0,0,0.015555555555555557,20.86,0)" xlink:href="#C"/><use transform="matrix(0.015555555555555557,0,0,0.015555555555555557,27.3,0)" xlink:href="#r"/></g><path fill="#333" d="M370-365c102 3 83-14 101-81h20v205h-20c-3-28-8-47-17-62-12-21-20-23-87-23H216v195c0 53 2 66 10 77 16 26 130 15 179 15 78 0 97-5 117-28 17-20 33-55 42-93h20L567 0H-4v-21c45 1 94-3 110-17 17-15 21-26 21-97v-397c0-66-3-79-15-94-15-18-54-23-94-21v-20h515l9 149h-20c-5-39-15-69-27-89-14-23-23-25-92-25H216v267h154" id="aa"/><path fill="#333" d="M657-436c149-1 101 215 101 367 0 42 30 51 92 49V0H609v-20c49 1 70-7 75-47 4-31 16-253-6-280-13-29-38-46-69-46-33 0-91 25-144 62v197c0 81 1 81 10 94 10 15 27 21 58 20V0H314v-20c29 1 53-8 67-23 21-21 13-159 13-214 0-71-1-79-11-99-11-23-39-38-68-38-33 0-71 16-144 62v198c0 81 1 80 10 94 10 16 29 21 66 20V0H24v-20c28 1 51-8 63-23 24-30 13-175 13-238 0-55-2-64-4-72-3-12-41-20-69-21v-18l128-46h16v86c87-58 148-84 193-84 51 0 89 33 99 85 91-58 152-85 194-85" id="ab"/><path fill="#333" d="M80-7v-582c-2-74 7-48-44-65l-30-5v-19l129-43h16v362c78-55 125-77 164-77 93 0 174 95 174 206C489-91 381 13 237 13 202 13 133 4 80-7zm91-59c21 31 56 48 97 48 88 0 150-75 150-182s-63-188-146-188c-34 0-71 16-121 51 5 77-13 241 20 271" id="ac"/><path fill="#333" d="M177-190C167-65 218 103 67 71c-23-6-38-20-44-43l32-5c15 47 100 32 89-28v-30C133-14 115 1 83 1 29 1 15-40 15-95c0-56 16-97 71-98 29-1 48 16 59 35 1-10 0-23 2-32h30zM94-22c36 0 50-32 50-73 0-42-14-75-50-75-39 0-46 34-46 75s6 73 46 73" id="ad"/><g id="p"><use transform="matrix(0.015555555555555557,0,0,0.015555555555555557,0,0)" xlink:href="#aa"/><use transform="matrix(0.015555555555555557,0,0,0.015555555555555557,9.8,0)" xlink:href="#ab"/><use transform="matrix(0.015555555555555557,0,0,0.015555555555555557,23.068888888888893,0)" xlink:href="#ac"/><use transform="matrix(0.015555555555555557,0,0,0.015555555555555557,31.29777777777778,0)" xlink:href="#s"/><use transform="matrix(0.015555555555555557,0,0,0.015555555555555557,38.422222222222224,0)" xlink:href="#x"/><use transform="matrix(0.015555555555555557,0,0,0.015555555555555557,46.71333333333334,0)" xlink:href="#x"/><use transform="matrix(0.015555555555555557,0,0,0.015555555555555557,55.05111111111112,0)" xlink:href="#E"/><use transform="matrix(0.015555555555555557,0,0,0.015555555555555557,59.39111111111112,0)" xlink:href="#F"/><use transform="matrix(0.04320987654320988,0,0,0.04320987654320988,68.13333333333334,0)" xlink:href="#ad"/></g></defs></g></svg>