<svg xmlns="http://www.w3.org/2000/svg" xmlns:xlink="http://www.w3.org/1999/xlink" xmlns:lucid="lucid" width="731" height="203"><g transform="translate(-228 -682)" lucid:page-tab-id="0_0"><path d="M260 740h100v87.5H260z" stroke="#c7e8ac" stroke-width="2" fill="#e9f8dc"/><use xlink:href="#a" transform="matrix(1,0,0,1,265,745) translate(2.6655555555555566 42.45333333333333)"/><use xlink:href="#b" transform="matrix(1,0,0,1,265,745) translate(51.245555555555555 42.45333333333333)"/><path d="M361 783.75h45.13" stroke="#666" fill="none"/><path d="M361 784.25h-1v-1h1zM421.13 783.75l-14.26 4.64v-9.3z" fill="#666"/><path d="M422.75 783.75l-16.38 5.32v-10.64zm-15.38 3.95l12.14-3.95-12.13-3.95z" fill="#666"/><path d="M423.75 764.25H570v39H423.75z" stroke="#b2b2b2" stroke-width="2" fill="#f2f2f2"/><use xlink:href="#c" transform="matrix(1,0,0,1,428.75,769.25) translate(23.917777777777772 17.953333333333333)"/><path d="M620 758.25h170v51H620z" stroke="#ff8f80" stroke-width="2" fill="#ffcdc6"/><use xlink:href="#d" transform="matrix(1,0,0,1,625,763.25) translate(17.563000000000002 24.996)"/><use xlink:href="#e" transform="matrix(1,0,0,1,625,763.25) translate(74.55099999999999 24.996)"/><path d="M571 783.75h31.38" stroke="#666" fill="none"/><path d="M571 784.25h-1v-1h1zM617.38 783.75l-14.26 4.64v-9.3z" fill="#666"/><path d="M619 783.75l-16.38 5.32v-10.64zm-15.38 3.95l12.14-3.95-12.14-3.95z" fill="#666"/><path d="M883.06 714v19.93H859V714zM883.06 733.93v19.93H859v-19.93z" stroke="#ffc374" stroke-width="2" fill="#ffebd0"/><path d="M883.06 753.86v19.93H859v-19.94zM883.06 773.8v19.9H859v-19.9zM883.06 793.7v19.94H859V793.7z" stroke="#ffc374" stroke-width="2" fill="#ffebd0"/><path d="M883.06 813.64v19.93H859v-19.93z" stroke="#ffc374" stroke-width="2" fill="#ffebd0"/><path d="M883.06 833.57v19.92H859v-19.93z" stroke="#ffc374" stroke-width="2" fill="#ffebd0"/><path d="M791 783.75h50.38" stroke="#666" fill="none"/><path d="M791 784.25h-1v-1h1zM856.38 783.75l-14.26 4.64v-9.3z" fill="#666"/><path d="M858 783.75l-16.38 5.32v-10.64zm-15.38 3.95l12.14-3.95-12.14-3.95z" fill="#666"/><path d="M780 745.06h259v77.38H780z" stroke="#000" stroke-opacity="0" stroke-width="2" fill="#fff" fill-opacity="0"/><g><use xlink:href="#f" transform="matrix(6.123233995736766e-17,1,-1,6.123233995736766e-17,1034.00537109375,750.0576171875) translate(15.573333333333334 120.05777777777779)"/><use xlink:href="#g" transform="matrix(6.123233995736766e-17,1,-1,6.123233995736766e-17,1034.00537109375,750.0576171875) translate(-5.617777777777775 137.83555555555554)"/></g><defs><path fill="#333" d="M257 17c-35 0-103-28-150-28-9 0-15 3-20 11H69L47-163h21C91-71 153-15 248-12c119 4 193-116 119-204-19-37-229-152-254-187-39-35-60-79-60-125 0-90 81-156 191-156 44 0 107 20 146 27 10 2 17-15 35-10l19 136h-19c-29-77-98-128-173-128-116 0-156 120-77 188 27 23 40 35 118 84 142 90 184 140 184 221 0 105-94 183-220 183" id="h"/><path fill="#333" d="M274 13C149 13 40-81 40-214c0-125 100-222 230-222 131 0 232 98 232 226C502-85 402 13 274 13zM120-244c0 128 74 232 166 232 78 0 136-74 136-172 0-123-76-227-166-227-78 0-136 71-136 167" id="i"/><path fill="#333" d="M203 13C132 13 90-27 90-126v-210c7-38-30-46-67-54v-16l138-30v251c0 75 0 90 16 109 57 67 140 38 209-22v-199c0-55-1-62-7-72-7-12-9-14-55-21l-32-5v-15l165-26v359c-3 51 38 30 72 27v19L386 13v-87c-78 57-141 87-183 87" id="j"/><path fill="#333" d="M246-368c-33 0-65 69-75 81v153c0 81 0 81 10 94 8 24 62 20 101 20V0H29v-20c23 1 46-9 58-23 11-14 13-25 13-90v-216l-71-26v-18l121-43h21v113c33-45 66-139 141-98 9 5 32 10 55 16l-26 65c-22 0-70-28-95-28" id="k"/><path fill="#333" d="M226 13C114 13 41-85 40-194c0-134 111-243 247-243 67 0 120 27 120 61 0 18-14 32-32 32-33 10-87-78-125-66-74 0-138 89-138 191 0 108 64 188 151 188 53 0 89-21 131-77l16 9C366-27 301 13 226 13" id="l"/><path fill="#333" d="M418-98C381-53 308 13 227 13 122 13 40-83 40-207c0-115 76-230 209-230 86 0 128 35 154 107 7 19 24 23 21 50H111C88-151 163-39 270-40c54 0 95-22 136-71zM114-300h220c-11-70-54-116-108-116-53 0-93 41-112 116" id="m"/><g id="a"><use transform="matrix(0.015555555555555557,0,0,0.015555555555555557,0,0)" xlink:href="#h"/><use transform="matrix(0.015555555555555557,0,0,0.015555555555555557,8.275555555555556,0)" xlink:href="#i"/><use transform="matrix(0.015555555555555557,0,0,0.015555555555555557,16.551111111111112,0)" xlink:href="#j"/><use transform="matrix(0.015555555555555557,0,0,0.015555555555555557,25.23111111111111,0)" xlink:href="#k"/><use transform="matrix(0.015555555555555557,0,0,0.015555555555555557,30.582222222222224,0)" xlink:href="#l"/><use transform="matrix(0.015555555555555557,0,0,0.015555555555555557,37.56666666666667,0)" xlink:href="#m"/></g><path fill="#333" d="M674-11c-46-12-174 28-243 28C214 17 57-126 57-325c0-209 161-359 385-359 77 0 154 25 227 44 8 2 20-9 35-6l9 154h-20c-36-100-134-166-245-166-171 1-291 130-291 310 0 190 132 336 305 336 114 0 200-52 260-156h21c-11 39-45 118-69 157" id="n"/><path fill="#333" d="M450-117c0 86 20 68 78 54v22L392 13h-13v-77c-72 51-129 77-169 77-94 0-171-93-171-208 0-171 171-287 340-216v-183c0-56-1-56-43-61l-36-4v-18l137-44h13v604zM110-226c0 107 62 192 140 192 33 0 84-20 129-51v-237c-40-57-79-81-131-81-80 0-138 74-138 177" id="o"/><g id="b"><use transform="matrix(0.015555555555555557,0,0,0.015555555555555557,0,0)" xlink:href="#n"/><use transform="matrix(0.015555555555555557,0,0,0.015555555555555557,12.273333333333333,0)" xlink:href="#i"/><use transform="matrix(0.015555555555555557,0,0,0.015555555555555557,20.704444444444444,0)" xlink:href="#o"/><use transform="matrix(0.015555555555555557,0,0,0.015555555555555557,28.964444444444446,0)" xlink:href="#m"/></g><path fill="#333" d="M40 0v-20c38-3 75-4 79-20 8-12 8-12 8-88v-429c0-60-1-64-11-76-11-13-15-14-67-14H23v-20c247-16 533-47 544 179 7 155-168 235-351 197 3 66-8 201 10 241 12 27 64 33 112 30V0H40zm427-490c0-138-103-189-251-162v341c139 35 251-49 251-179" id="p"/><path fill="#333" d="M90 114c-1-146 1-295-1-440-1-25-2-26-64-41v-21l115-70h21v103c79-57 124-78 167-78 84 0 159 95 159 200C487-70 326 60 161-14c4 59-11 208 16 225 14 18 47 20 83 19v20H7v-20c35 1 59-5 72-23 9-13 11-27 11-93zm71-200c39 36 88 59 128 59 73 0 127-70 127-165 0-106-62-189-141-189-34 0-74 19-114 53v242" id="q"/><path fill="#333" d="M177 13c-22 0-50-8-77-15-8 0-12 4-17 14H66L55-108h17C80-46 120-6 173-6c42 0 76-32 76-72 0-36-26-67-98-115-82-55-97-74-97-122 0-103 127-148 223-105l3 99h-19c-9-55-42-90-85-90-37 0-66 27-66 61 0 35 18 55 84 97 73 46 116 60 116 144 0 69-58 122-133 122" id="r"/><path fill="#333" d="M136-604c-28 0-47-17-47-42 0-23 20-40 47-40s47 17 47 41-20 41-47 41zM18-20c77-11 89-9 89-105v-179c0-56 0-55-56-67l-27-6v-17l139-48h15v317c0 62 1 68 13 83 12 14 26 19 64 22V0H18v-20" id="s"/><path fill="#333" d="M313-387c-24-9-119 47-142 64v189c0 81 1 80 10 94 10 15 27 20 62 20V0H28v-20c24 1 47-9 59-23 23-29 13-170 13-231 0-106 10-71-69-100v-16l124-46h16v93c77-55 147-87 189-87 146 0 113 207 103 365-2 38 28 47 84 45V0H316v-20c46-4 61-12 70-36 8-21 14-117 14-209 0-77-24-117-87-122" id="t"/><path fill="#333" d="M21 149C7 99 127 41 136 16 45 10-15-79 88-113c34-11 44-18 55-26-66-24-103-72-103-133 0-92 82-164 188-164 49 0 91 15 120 42 50-1 85-3 141-11v67c-41-2-85-7-107-13 67 133-62 252-220 218 1 9-64 28-64 55 0 17 19 25 63 32 34 5 224-1 254 24 37 14 64 54 64 95 0 112-160 177-291 177-99 0-167-41-167-101zm204-295c62 0 104-51 104-127 0-83-48-144-114-144-61 0-104 48-104 116 0 90 47 155 114 155zM157 20c3 9-69 54-69 91 0 56 76 108 157 108 94 0 178-60 178-126 0-32-19-54-56-62 32-4-184-6-210-11" id="u"/><g id="c"><use transform="matrix(0.015555555555555557,0,0,0.015555555555555557,0,0)" xlink:href="#p"/><use transform="matrix(0.015555555555555557,0,0,0.015555555555555557,9.411111111111111,0)" xlink:href="#k"/><use transform="matrix(0.015555555555555557,0,0,0.015555555555555557,14.855555555555556,0)" xlink:href="#m"/><use transform="matrix(0.015555555555555557,0,0,0.015555555555555557,21.824444444444445,0)" xlink:href="#q"/><use transform="matrix(0.015555555555555557,0,0,0.015555555555555557,29.866666666666667,0)" xlink:href="#k"/><use transform="matrix(0.015555555555555557,0,0,0.015555555555555557,35.31111111111111,0)" xlink:href="#i"/><use transform="matrix(0.015555555555555557,0,0,0.015555555555555557,43.742222222222225,0)" xlink:href="#l"/><use transform="matrix(0.015555555555555557,0,0,0.015555555555555557,50.72666666666667,0)" xlink:href="#m"/><use transform="matrix(0.015555555555555557,0,0,0.015555555555555557,57.788888888888884,0)" xlink:href="#r"/><use transform="matrix(0.015555555555555557,0,0,0.015555555555555557,63.06222222222222,0)" xlink:href="#r"/><use transform="matrix(0.015555555555555557,0,0,0.015555555555555557,68.41333333333333,0)" xlink:href="#s"/><use transform="matrix(0.015555555555555557,0,0,0.015555555555555557,72.75333333333333,0)" xlink:href="#t"/><use transform="matrix(0.015555555555555557,0,0,0.015555555555555557,81.62,0)" xlink:href="#u"/></g><path fill="#333" d="M35-20c80-5 92-18 92-116v-484c-22-17-54-26-90-27v-20h169l505 527v-393c0-76-4-90-29-103-11-6-31-9-76-11v-20h251v20c-51 2-72 5-82 14-15 12-15 13-15 83V7h-28L176-574v433c0 65 3 81 13 97 11 19 34 20 95 24V0H35v-20" id="v"/><path fill="#333" d="M255-52c-39 28-89 75-129 65-56 0-95-36-95-88 0-54 33-80 126-105 41-11 68-23 96-41v-85c7-65-33-99-79-99-38 0-82 36-60 72l-73 36c-23-58 109-139 155-139 43 0 88 24 112 56 34 46 3 251 20 323 3 12 12 18 25 18 16 0 29-6 52-23l5 15c-40 36-83 60-106 60-30 0-47-23-49-65zm-92 27c14 8 60-30 90-47v-128c-19 11-32 17-93 42-43 18-60 38-60 70 0 35 28 63 63 63" id="w"/><path fill="#333" d="M11 0v-20c35 1 61-6 75-22 14-15 14-16 14-95v-434c0-65 0-65-6-72-6-10-55-12-75-16v-18l136-44h16c2 216-4 455 3 664 8 28 34 38 78 37V0H11" id="x"/><g id="d"><use transform="matrix(0.018,0,0,0.018,0,0)" xlink:href="#v"/><use transform="matrix(0.018,0,0,0.018,15.695999999999998,0)" xlink:href="#m"/><use transform="matrix(0.018,0,0,0.018,23.687999999999995,0)" xlink:href="#j"/><use transform="matrix(0.018,0,0,0.018,33.73199999999999,0)" xlink:href="#k"/><use transform="matrix(0.018,0,0,0.018,40.337999999999994,0)" xlink:href="#w"/><use transform="matrix(0.018,0,0,0.018,47.789999999999985,0)" xlink:href="#x"/></g><path fill="#333" d="M103-41C88-65 87-77 87-154v-224H38v-17c40-19 81-73 102-136h18v106h153l-17 47H158v199c0 77 2 91 16 109 41 51 89 42 121-21l17 15C277 22 157 46 103-41" id="y"/><path fill="#333" d="M230 9L86-315c-33-75-43-84-96-90v-20h208v20c-71 9-66 23-41 80L268-75l106-250c-26-62-45-77-105-80v-20h222v20c-72 3-60 35-39 86l99 239 87-213c19-46 24-62 24-75 0-28-14-35-71-37v-20h180v20c-53 7-67 25-107 124L546 9h-30L388-293 260 9h-30" id="z"/><path fill="#333" d="M27 0v-20c25 1 48-8 60-23 11-14 13-25 13-90v-438c0-65 0-65-6-71-3-9-51-13-69-17v-19l130-43h16v465l143-100c22-15 29-23 29-31 0-13-21-19-57-18v-20h213v20c-80-10-194 92-264 138L407-91c58 60 77 68 127 71V0H304v-20c60-4 57-20 22-57L171-237c3 47-9 195 12 202 10 14 31 15 62 15V0H27" id="A"/><g id="e"><use transform="matrix(0.018,0,0,0.018,0,0)" xlink:href="#v"/><use transform="matrix(0.018,0,0,0.018,15.695999999999998,0)" xlink:href="#m"/><use transform="matrix(0.018,0,0,0.018,23.561999999999998,0)" xlink:href="#y"/><use transform="matrix(0.018,0,0,0.018,30.023999999999997,0)" xlink:href="#z"/><use transform="matrix(0.018,0,0,0.018,43.28999999999999,0)" xlink:href="#i"/><use transform="matrix(0.018,0,0,0.018,52.86599999999999,0)" xlink:href="#k"/><use transform="matrix(0.018,0,0,0.018,59.202,0)" xlink:href="#A"/></g><path d="M257 17c-35 0-103-28-150-28-9 0-15 3-20 11H69L47-163h21C91-71 153-15 248-12c119 4 193-116 119-204-19-37-229-152-254-187-39-35-60-79-60-125 0-90 81-156 191-156 44 0 107 20 146 27 10 2 17-15 35-10l19 136h-19c-29-77-98-128-173-128-116 0-156 120-77 188 27 23 40 35 118 84 142 90 184 140 184 221 0 105-94 183-220 183" id="B"/><path d="M103-41C88-65 87-77 87-154v-224H38v-17c40-19 81-73 102-136h18v106h153l-17 47H158v199c0 77 2 91 16 109 41 51 89 42 121-21l17 15C277 22 157 46 103-41" id="C"/><path d="M127 171c41-10 57-31 88-108l21-52L88-304c-40-84-51-98-103-101v-20h216v20c-44 1-63 10-63 30 0 11 2 15 25 65L271-78l79-199c22-54 27-71 27-86 0-30-16-40-67-42v-20h178v20c-52 8-67 28-111 138L238 81c-37 94-45 111-62 136-17 23-33 33-54 33-24 0-43-16-43-37s14-33 48-42" id="D"/><path d="M11 0v-20c35 1 61-6 75-22 14-15 14-16 14-95v-434c0-65 0-65-6-72-6-10-55-12-75-16v-18l136-44h16c2 216-4 455 3 664 8 28 34 38 78 37V0H11" id="E"/><path d="M418-98C381-53 308 13 227 13 122 13 40-83 40-207c0-115 76-230 209-230 86 0 128 35 154 107 7 19 24 23 21 50H111C88-151 163-39 270-40c54 0 95-22 136-71zM114-300h220c-11-70-54-116-108-116-53 0-93 41-112 116" id="F"/><g id="f"><use transform="matrix(0.017777777777777778,0,0,0.017777777777777778,0,0)" xlink:href="#B"/><use transform="matrix(0.017777777777777778,0,0,0.017777777777777778,9.226666666666667,0)" xlink:href="#C"/><use transform="matrix(0.017777777777777778,0,0,0.017777777777777778,15.662222222222223,0)" xlink:href="#D"/><use transform="matrix(0.017777777777777778,0,0,0.017777777777777778,24.24888888888889,0)" xlink:href="#E"/><use transform="matrix(0.017777777777777778,0,0,0.017777777777777778,28.711111111111112,0)" xlink:href="#F"/></g><path d="M348-677c248 0 415 108 415 320C763-171 614-10 401-2 301 2 134-1 23 0v-20c40 1 73-5 87-21 14-17 16-18 16-94v-398c0-64-4-80-16-95s-40-20-87-19v-20c185-7 293-10 325-10zM226-35c10 12 25 15 69 15 139 0 191-14 254-66 74-62 114-150 114-253 0-162-88-278-232-304-59-11-144-15-216-10v558c0 43 1 50 11 60" id="G"/><path d="M177 13c-22 0-50-8-77-15-8 0-12 4-17 14H66L55-108h17C80-46 120-6 173-6c42 0 76-32 76-72 0-36-26-67-98-115-82-55-97-74-97-122 0-103 127-148 223-105l3 99h-19c-9-55-42-90-85-90-37 0-66 27-66 61 0 35 18 55 84 97 73 46 116 60 116 144 0 69-58 122-133 122" id="H"/><path d="M226 13C114 13 41-85 40-194c0-134 111-243 247-243 67 0 120 27 120 61 0 18-14 32-32 32-33 10-87-78-125-66-74 0-138 89-138 191 0 108 64 188 151 188 53 0 89-21 131-77l16 9C366-27 301 13 226 13" id="I"/><path d="M246-368c-33 0-65 69-75 81v153c0 81 0 81 10 94 8 24 62 20 101 20V0H29v-20c23 1 46-9 58-23 11-14 13-25 13-90v-216l-71-26v-18l121-43h21v113c33-45 66-139 141-98 9 5 32 10 55 16l-26 65c-22 0-70-28-95-28" id="J"/><path d="M136-604c-28 0-47-17-47-42 0-23 20-40 47-40s47 17 47 41-20 41-47 41zM18-20c77-11 89-9 89-105v-179c0-56 0-55-56-67l-27-6v-17l139-48h15v317c0 62 1 68 13 83 12 14 26 19 64 22V0H18v-20" id="K"/><path d="M90 114c-1-146 1-295-1-440-1-25-2-26-64-41v-21l115-70h21v103c79-57 124-78 167-78 84 0 159 95 159 200C487-70 326 60 161-14c4 59-11 208 16 225 14 18 47 20 83 19v20H7v-20c35 1 59-5 72-23 9-13 11-27 11-93zm71-200c39 36 88 59 128 59 73 0 127-70 127-165 0-106-62-189-141-189-34 0-74 19-114 53v242" id="L"/><path d="M274 13C149 13 40-81 40-214c0-125 100-222 230-222 131 0 232 98 232 226C502-85 402 13 274 13zM120-244c0 128 74 232 166 232 78 0 136-74 136-172 0-123-76-227-166-227-78 0-136 71-136 167" id="M"/><g id="g"><use transform="matrix(0.017777777777777778,0,0,0.017777777777777778,0,0)" xlink:href="#G"/><use transform="matrix(0.017777777777777778,0,0,0.017777777777777778,14.542222222222223,0)" xlink:href="#F"/><use transform="matrix(0.017777777777777778,0,0,0.017777777777777778,22.613333333333333,0)" xlink:href="#H"/><use transform="matrix(0.017777777777777778,0,0,0.017777777777777778,28.72888888888889,0)" xlink:href="#I"/><use transform="matrix(0.017777777777777778,0,0,0.017777777777777778,36.71111111111111,0)" xlink:href="#J"/><use transform="matrix(0.017777777777777778,0,0,0.017777777777777778,43.64444444444444,0)" xlink:href="#K"/><use transform="matrix(0.017777777777777778,0,0,0.017777777777777778,48.60444444444444,0)" xlink:href="#L"/><use transform="matrix(0.017777777777777778,0,0,0.017777777777777778,57.81333333333333,0)" xlink:href="#C"/><use transform="matrix(0.017777777777777778,0,0,0.017777777777777778,63.413333333333334,0)" xlink:href="#M"/><use transform="matrix(0.017777777777777778,0,0,0.017777777777777778,72.8711111111111,0)" xlink:href="#J"/></g></defs></g></svg>