<svg xmlns="http://www.w3.org/2000/svg" xmlns:xlink="http://www.w3.org/1999/xlink" xmlns:lucid="lucid" width="627" height="436"><g transform="translate(-337 -68)" lucid:page-tab-id="0_0"><path d="M912.35 438.76v-80" stroke="#000" stroke-width="2" fill="none"/><path d="M892 436.05h43.13v27.1H892z" stroke="#000" stroke-width="2" fill="#fff"/><path d="M896 441.9h39.26v16H896z" fill-opacity="0"/><path d="M902.6 444.43l.28 1.4c1.7-2.62 2.6-3.5 3.7-3.5.58 0 1 .37 1 .9 0 .52-.35.88-.84.88-.46 0-.68-.4-1.27-.4-.44 0-1.32 1.07-2.4 2.96 0 .17.05.5.2 1.1l.78 3.27c.17.68.4 1 .74 1 .3 0 .57-.24 1.13-.98.22-.3.32-.44.52-.68l.36.22c-1.4 2.2-2.04 2.78-2.97 2.78-.78 0-1.15-.44-1.44-1.67l-.72-2.9-2.15 2.9c-1.07 1.46-1.56 1.68-2.32 1.68-.75 0-1.2-.4-1.2-1.03 0-.5.33-.88.82-.88.22 0 .46.1.78.27.25.15.5.22.64.22.26 0 .73-.47 1.24-1.2l2-2.83-.68-3.03c-.34-1.47-.5-1.67-1.12-1.67-.2 0-.5.05-.96.18l-.44.13-.07-.4.28-.1c1.5-.53 2.3-.7 2.86-.7.6 0 .9.44 1.25 2.1M912.06 446.42c0 .5-.4.88-.85.88-.5 0-.82-.36-.82-.9 0-.55.35-.93.82-.93.46 0 .86.45.86.95m-.73 8.38l.23.2c-.95 1.44-1.5 1.96-2.37 1.96-.58 0-.86-.3-.86-.95 0-.33.13-.94.38-1.9l.83-3.06c.1-.3.16-.63.16-.76 0-.35-.16-.4-1.1-.42v-.28c.68-.05 1.02-.1 2.77-.43l.07.05-1.63 5.93c-.07.3-.16.52-.16.76 0 .16.1.25.24.25.3 0 .7-.36 1.45-1.35M923.3 452.97h-4.52v4.5h-1.14v-4.5h-4.5v-1.14h4.5v-4.5h1.14v4.5h4.5v1.14M930.96 456.77h-4.77v-.26c1.27-.06 1.64-.42 1.64-1.37v-7.76c0-.58-.16-.84-.52-.84-.18 0-.47.08-.78.2l-.47.18v-.24l3.1-1.57.15.04v10.32c0 .74.35 1.05 1.64 1.05v.27"/><path d="M370.2 230.66h94.82M370.2 230.66h-3" stroke="#000" stroke-width="2" fill="none"/><path d="M480.02 230.66l-14.27 4.64v-9.27z" stroke="#000" stroke-width="2"/><path d="M392.36 364.18l.23-204.2" fill="none"/><path d="M392.36 364.18v-3.92m0-7.86l.02-7.85m0-7.86l.02-7.86m0-7.86v-7.85m.02-7.85v-7.86m.02-7.85v-7.86m.02-7.84V266m.02-7.85v-7.86m0-7.86l.02-7.85m0-7.87l.02-7.85m0-7.86l.02-7.85m0-7.86v-7.84m.02-7.85v-7.85m.02-7.85v-3.93" stroke="#000" stroke-width="2" fill="none"/><path d="M397.22 159.24h-9.27l4.65-14.27z"/><path d="M398.6 160.24h-12.03l6.04-18.5zm-9.27-2h6.52l-3.25-10.03z"/><path d="M500 195c0-8.28 6.72-15 15-15h290c8.28 0 15 6.72 15 15v190c0 8.28-6.72 15-15 15H515c-8.28 0-15-6.72-15-15z" stroke="#3aa6dd" stroke-width="2" fill="#c1e4f7" fill-opacity=".78"/><path d="M440 360h251.78v-25.5" stroke="#000" stroke-width="2" fill="none"/><path d="M692.78 334.5h-2v-1h2z"/><path d="M531.52 440v-80" stroke="#000" stroke-width="2" fill="none"/><path d="M541.83 312.5h23.56v21h-23.57z" stroke="#fcc438" stroke-width="2" fill="#ffeed7"/><path d="M546.03 316.25h15.15v13.5h-15.15z" fill="#ffeed7"/><path d="M561.17 316.74l-.52 2.1h-4.84c1.15 1.8 2.74 1.78 2.74 3.9 0 3.15-3.6 6.5-7.58 6.5-2.67 0-4.16-1.53-4.16-4 0-3.85 3.45-8.5 8.84-8.5h5.53m-5.02 5.9c0-1.82-.74-3.25-1.65-3.8-1.97 0-5.3 3.23-5.3 7.25 0 1.7.88 2.55 2.22 2.55 2.74 0 4.73-3.73 4.73-6"/><path d="M585.4 312.5h23.55v21H585.4z" stroke="#fcc438" stroke-width="2" fill="#ffeed7"/><path d="M589.6 316.25h15.14v13.5H589.6z" fill="#ffeed7"/><path d="M604.73 316.74l-.5 2.1h-4.86c1.14 1.8 2.74 1.78 2.74 3.9 0 3.15-3.58 6.5-7.57 6.5-2.68 0-4.16-1.53-4.16-4 0-3.85 3.45-8.5 8.83-8.5h5.53m-5.02 5.9c0-1.82-.73-3.25-1.64-3.8-1.96 0-5.3 3.23-5.3 7.25 0 1.7.88 2.55 2.22 2.55 2.74 0 4.73-3.73 4.73-6"/><path d="M628.95 312.5H660v21h-31.05z" stroke="#fcc438" stroke-width="2" fill="#ffeed7"/><use xlink:href="#a" transform="matrix(1,0,0,1,633.9528373102319,317.4994185362907) translate(-1.4733333333333345 9.626666666666667)"/><path d="M680 312.5h23.56v21H680z" stroke="#fcc438" stroke-width="2" fill="#ffeed7"/><path d="M684.2 316.25h15.15v13.5H684.2z" fill="#ffeed7"/><path d="M699.34 316.74l-.5 2.1h-4.86c1.14 1.8 2.74 1.78 2.74 3.9 0 3.15-3.6 6.5-7.58 6.5-2.68 0-4.16-1.53-4.16-4 0-3.85 3.45-8.5 8.83-8.5h5.54m-5 5.9c0-1.82-.76-3.25-1.67-3.8-1.96 0-5.3 3.23-5.3 7.25 0 1.7.9 2.55 2.22 2.55 2.73 0 4.73-3.73 4.73-6"/><path d="M654.48 230c0 5.52-4.48 10-10 10-5.53 0-10-4.48-10-10s4.47-10 10-10c5.52 0 10 4.48 10 10z" stroke="#834187" stroke-width="2" fill="#f1ddf3"/><use xlink:href="#b" transform="matrix(1,0,0,1,639.4764186551159,225) translate(0.999348958333333 10.6640625)"/><path d="M654.48 290c0 5.52-4.48 10-10 10-5.53 0-10-4.48-10-10s4.47-10 10-10c5.52 0 10 4.48 10 10z" stroke="#834187" stroke-width="2" fill="#f1ddf3"/><use xlink:href="#c" transform="matrix(1,0,0,1,639.4764186551159,285) translate(0.999348958333333 10.6640625)"/><path d="M553.6 360v-25.5" stroke="#000" stroke-width="2" fill="none"/><path d="M554.6 334.5h-2v-1h2z"/><path d="M597.17 334.5V360" stroke="#000" stroke-width="2" fill="none"/><path d="M598.17 334.5h-2v-1h2z"/><path d="M644.48 334.5V360" stroke="#000" stroke-width="2" fill="none"/><path d="M645.48 334.5h-2v-1h2z"/><path d="M553.6 311.5V269" stroke="#000" stroke-width="2" fill="none"/><path d="M554.6 312.5h-2v-1h2z"/><path d="M553.6 254l4.64 14.27h-9.27z" stroke="#000" stroke-width="2"/><path d="M644.48 311.5V301" stroke="#000" stroke-width="2" fill="none"/><path d="M645.48 312.5h-2v-1h2zM645.48 301h-2v-1.16l1 .16 1-.16z"/><path d="M644.48 279v-12.74" stroke="#000" stroke-width="2" fill="none"/><path d="M645.48 280.13l-1-.13-1 .13V279h2z"/><path d="M644.48 251.26l4.63 14.26h-9.26z" stroke="#000" stroke-width="2"/><path d="M597.17 311.5V290h18.06" stroke="#000" stroke-width="2" fill="none"/><path d="M598.17 312.5h-2v-1h2zM630.23 290l-14.26 4.64v-9.28z"/><path d="M633.47 290l-18.5 6v-12zm-16.5 3.26L627 290l-10.03-3.26z"/><path d="M563.6 230c0 5.52-4.47 10-10 10-5.52 0-10-4.48-10-10s4.48-10 10-10c5.53 0 10 4.48 10 10z" stroke="#834187" stroke-width="2" fill="#f1ddf3"/><path d="M543.6 216h20v20h-20z" stroke="#000" stroke-opacity="0" stroke-width="2" fill="#fff" fill-opacity="0"/><use xlink:href="#d" transform="matrix(1,0,0,1,548.6071766506336,221) translate(0.5 14.4)"/><path d="M654.48 290c0 5.52-4.48 10-10 10-5.53 0-10-4.48-10-10s4.47-10 10-10c5.52 0 10 4.48 10 10z" stroke="#834187" stroke-width="2" fill="#f1ddf3"/><path d="M634.48 276h20v20h-20z" stroke="#000" stroke-opacity="0" stroke-width="2" fill="#fff" fill-opacity="0"/><use xlink:href="#d" transform="matrix(1,0,0,1,639.4764186551159,281) translate(0.5 14.4)"/><path d="M440 360h21.76" stroke="#000" stroke-width="2" fill="none"/><path d="M476.76 360l-14.26 4.64v-9.28z" stroke="#000" stroke-width="2"/><path d="M760 296c0 5.52-4.48 10-10 10s-10-4.48-10-10 4.48-10 10-10 10 4.48 10 10z" stroke="#834187" stroke-width="2" fill="#f1ddf3"/><path d="M740 282h20v20h-20z" stroke="#000" stroke-opacity="0" stroke-width="2" fill="#fff" fill-opacity="0"/><use xlink:href="#d" transform="matrix(1,0,0,1,745,287) translate(0.5 14.4)"/><path d="M734.48 255h31.04v21h-31.04z" stroke="#fcc438" stroke-width="2" fill="#ffeed7"/><use xlink:href="#a" transform="matrix(1,0,0,1,739.4764186551159,260.00690553031035) translate(-1.4733333333333345 9.626666666666667)"/><path d="M691.78 311.5v-16.04h29.98" stroke="#000" stroke-width="2" fill="none"/><path d="M692.78 312.5h-2v-1h2zM736.76 295.46l-14.26 4.64v-9.27z"/><path d="M740 295.46l-18.5 6v-12zm-16.5 3.26l10.03-3.26-10.03-3.26z"/><path d="M439.38 230.66H543.6" stroke="#000" stroke-width="2" fill="none"/><path/><path d="M633.57 230.66H563.6" stroke="#000" stroke-width="2" fill="none"/><path d="M634.48 230l.26 1.66h-1.17v-2h.95z"/><path/><path d="M655.38 230.66h206.38" stroke="#000" stroke-width="2" fill="none"/><path d="M655.38 231.66h-1.17l.28-1.66-.05-.34h.95z"/><path d="M876.76 230.66l-14.26 4.64v-9.27z" stroke="#000" stroke-width="2"/><path d="M750 254v-23.34" stroke="#000" stroke-width="2" fill="none"/><path d="M751 255h-2v-1h2z"/><path d="M750 277v8" stroke="#000" stroke-width="2" fill="none"/><path d="M751 277h-2v-1h2zM751 286.13l-1-.13-1 .13V285h2z"/><path d="M750 307v53h111.76" stroke="#000" stroke-width="2" fill="none"/><path d="M751 307h-2v-1.16l1 .16 1-.16z"/><path d="M876.76 360l-14.26 4.64v-9.28z" stroke="#000" stroke-width="2"/><path d="M791.15 360V155.3" fill="none"/><path d="M791.15 360v-3.94m0-7.87v-7.88m0-7.88v-7.87m0-7.87v-7.88m0-7.87v-7.87m0-7.88v-7.87m0-7.87v-7.88m0-7.87v-7.86m0-7.88v-7.87m0-7.88v-7.88m0-7.87v-7.87m0-7.88v-7.87m0-7.87v-7.87m0-7.87v-3.93" stroke="#000" stroke-width="2" fill="none"/><path d="M791.15 140.3l4.64 14.26h-9.28z" stroke="#000" stroke-width="2"/><path d="M371.04 113.64h43.13v27.1h-43.13z" stroke="#000" stroke-width="2" fill="#ffbbb1" fill-opacity=".73"/><path d="M374.2 116.5h39.97v21.38H374.2z" fill-opacity="0"/><path d="M385.55 130.72l.32.32c-1.5 2.13-2.32 2.8-3.57 2.8-.66 0-1.07-.4-1.07-1.04 0-.3.17-1.05.5-2.25l1.33-5.06c.1-.4.17-.7.17-.8 0-.38-.12-.62-.68-.62-.88 0-2.45 1.5-3.72 3.42-.97 1.5-1.37 2.34-2.34 6.1h-1.85l3.57-13.53c.2-.76.32-1.17.32-1.52 0-.4-.56-.6-1-.6h-.66v-.37c1.46-.17 2.42-.35 3.83-.66l.2.14-2.97 10.93c2.2-3.58 4.1-5.17 5.62-5.17 1.12 0 1.6.73 1.6 1.64 0 .6-.45 2.42-1.2 4.7-.4 1.3-.8 2.8-.8 3.07 0 .24.18.44.4.44.4 0 .68-.3 2-1.96M390.97 126.92c0 .5-.4.88-.85.88-.5 0-.83-.36-.83-.9 0-.55.34-.93.8-.93.47 0 .87.45.87.95m-.73 8.38l.23.2c-.95 1.45-1.5 1.96-2.37 1.96-.57 0-.84-.3-.84-.95 0-.33.12-.94.38-1.9l.82-3.06c.1-.3.16-.63.16-.76 0-.35-.17-.4-1.1-.42v-.27c.67-.07 1-.12 2.76-.45l.07.05-1.63 5.93c-.08.3-.17.52-.17.76 0 .16.1.25.24.25.3 0 .7-.36 1.44-1.35M401.94 133.47h-9.62v-1.14h9.62v1.14M409.87 137.27h-4.76V137c1.28-.05 1.65-.42 1.65-1.37v-7.76c0-.58-.16-.84-.52-.84-.17 0-.47.08-.78.2l-.47.18v-.24l3.1-1.57.15.04v10.32c0 .74.35 1.05 1.64 1.05v.27"/><path d="M120 195c0-8.28 6.72-15 15-15h290c8.28 0 15 6.72 15 15v190c0 8.28-6.72 15-15 15H135c-8.28 0-15-6.72-15-15zM880 195c0-8.28 6.72-15 15-15h290c8.28 0 15 6.72 15 15v190c0 8.28-6.72 15-15 15H895c-8.28 0-15-6.72-15-15z" stroke="#3aa6dd" stroke-width="2" fill="#c1e4f7"/><path d="M770.07 108.18h43.13v27.1h-43.13z" stroke="#000" stroke-width="2" fill="#ffbbb1" fill-opacity=".73"/><path d="M781.9 111.03h19.48v21.4h-19.5z" fill-opacity="0"/><path d="M793.25 125.26l.32.32c-1.5 2.13-2.32 2.78-3.57 2.78-.66 0-1.07-.4-1.07-1.02 0-.3.17-1.05.5-2.25l1.33-5.07c.1-.4.17-.7.17-.8 0-.37-.12-.62-.68-.62-.88 0-2.45 1.5-3.72 3.44-.97 1.5-1.37 2.34-2.34 6.1h-1.85l3.57-13.53c.2-.75.32-1.17.32-1.5 0-.42-.56-.62-1-.62h-.66v-.37c1.46-.16 2.42-.33 3.83-.65l.2.15-2.97 10.92c2.2-3.56 4.1-5.15 5.62-5.15 1.12 0 1.6.73 1.6 1.64 0 .62-.45 2.42-1.18 4.72-.42 1.27-.8 2.8-.8 3.06 0 .24.16.44.38.44.4 0 .68-.3 2-1.96M798.67 121.47c0 .5-.4.9-.85.9-.5 0-.83-.38-.83-.93 0-.54.34-.92.8-.92.47 0 .87.45.87.95m-.73 8.4l.23.18c-.95 1.45-1.5 1.97-2.37 1.97-.57 0-.85-.32-.85-.95 0-.35.12-.96.38-1.92l.83-3.06c.1-.32.16-.63.16-.77 0-.35-.17-.4-1.1-.42v-.26c.67-.05 1-.1 2.76-.43l.07.06-1.63 5.92c-.08.3-.17.52-.17.76 0 .18.1.26.24.26.3 0 .7-.36 1.44-1.34"/><path d="M511.17 437.3h43.13v27.1h-43.13z" stroke="#000" stroke-width="2" fill="#fff"/><path d="M523 443.15h18.76v15.47H523z" fill="#fff"/><path d="M529.58 445.67l.3 1.4c1.7-2.62 2.6-3.5 3.68-3.5.6 0 1 .37 1 .9 0 .52-.34.88-.83.88-.46 0-.68-.4-1.27-.4-.44 0-1.32 1.06-2.4 2.94 0 .17.05.5.2 1.1l.78 3.27c.17.68.4 1 .74 1 .3 0 .58-.24 1.14-.98.22-.3.32-.45.52-.7l.36.23c-1.4 2.2-2.05 2.8-2.98 2.8-.78 0-1.15-.45-1.44-1.68l-.7-2.9-2.16 2.9c-1.07 1.45-1.56 1.67-2.32 1.67-.76 0-1.22-.4-1.22-1.03 0-.5.34-.9.83-.9.23 0 .47.1.8.28.24.14.48.22.63.22.27 0 .73-.47 1.24-1.2l2-2.83-.68-3.03c-.35-1.47-.52-1.67-1.13-1.67-.2 0-.5.05-.95.17l-.44.13-.08-.4.27-.1c1.5-.53 2.3-.7 2.86-.7.6 0 .9.44 1.25 2.1M539.05 447.68c0 .48-.4.88-.84.88-.5 0-.82-.37-.82-.92 0-.53.34-.9.8-.9.47 0 .87.44.87.94m-.72 8.38l.22.2c-.95 1.44-1.5 1.96-2.37 1.96-.57 0-.84-.3-.84-.95 0-.35.12-.95.38-1.92l.83-3.06c.08-.32.15-.63.15-.77 0-.35-.17-.4-1.1-.42v-.26c.67-.05 1.02-.1 2.76-.43l.07.06-1.62 5.93c-.08.28-.17.5-.17.75 0 .17.1.25.24.25.3 0 .7-.36 1.46-1.34"/><defs><path fill="#333" d="M103-41C88-65 87-77 87-154v-224H38v-17c40-19 81-73 102-136h18v106h153l-17 47H158v199c0 77 2 91 16 109 41 51 89 42 121-21l17 15C277 22 157 46 103-41" id="e"/><path fill="#333" d="M255-52c-39 28-89 75-129 65-56 0-95-36-95-88 0-54 33-80 126-105 41-11 68-23 96-41v-85c7-65-33-99-79-99-38 0-82 36-60 72l-73 36c-23-58 109-139 155-139 43 0 88 24 112 56 34 46 3 251 20 323 3 12 12 18 25 18 16 0 29-6 52-23l5 15c-40 36-83 60-106 60-30 0-47-23-49-65zm-92 27c14 8 60-30 90-47v-128c-19 11-32 17-93 42-43 18-60 38-60 70 0 35 28 63 63 63" id="f"/><path fill="#333" d="M313-387c-24-9-119 47-142 64v189c0 81 1 80 10 94 10 15 27 20 62 20V0H28v-20c24 1 47-9 59-23 23-29 13-170 13-231 0-106 10-71-69-100v-16l124-46h16v93c77-55 147-87 189-87 146 0 113 207 103 365-2 38 28 47 84 45V0H316v-20c46-4 61-12 70-36 8-21 14-117 14-209 0-77-24-117-87-122" id="g"/><path fill="#333" d="M467-254c0 55-3 144-5 192-1 34 24 43 81 42V0H312v-20c107 2 84-88 84-199 0-79-4-106-17-129-17-29-46-45-83-45-36 0-62 10-125 46v213c0 81 1 81 10 94 10 15 26 20 60 20V0H27v-20c31-1 47-8 60-23 11-13 13-26 13-90v-449c0-55 0-55-6-62-3-9-48-12-68-14v-19l129-44h16v352c87-51 132-68 178-68 98 0 118 61 118 183" id="h"/><g id="a"><use transform="matrix(0.013333333333333334,0,0,0.013333333333333334,0,0)" xlink:href="#e"/><use transform="matrix(0.013333333333333334,0,0,0.013333333333333334,4.506666666666667,0)" xlink:href="#f"/><use transform="matrix(0.013333333333333334,0,0,0.013333333333333334,10.026666666666667,0)" xlink:href="#g"/><use transform="matrix(0.013333333333333334,0,0,0.013333333333333334,17.520000000000003,0)" xlink:href="#h"/></g><path fill="#333" d="M687-608v428H540v-428H116v-146h424v-428h147v428h424v146H687" id="i"/><use transform="matrix(0.006510416666666667,0,0,0.006510416666666667,0,0)" xlink:href="#i" id="b"/><path fill="#333" d="M614-836l333-513h205L717-705 1193 0H988L614-573 241 0H36l476-705-435-644h205" id="j"/><use transform="matrix(0.006510416666666667,0,0,0.006510416666666667,0,0)" xlink:href="#j" id="c"/><path fill="#333" d="M141 0L90-78 38 0H4l68-98-65-92h35l48 74 47-74h35l-64 92 68 98h-35" id="k"/><use transform="matrix(0.05,0,0,0.05,0,0)" xlink:href="#k" id="d"/></defs></g></svg>