<svg xmlns="http://www.w3.org/2000/svg" xmlns:xlink="http://www.w3.org/1999/xlink" xmlns:lucid="lucid" width="219" height="279"><g transform="translate(-81 -421)" lucid:page-tab-id="0_0"><path d="M160 555c0-8.28 6.72-15 15-15h30c8.28 0 15 6.72 15 15v30c0 8.28-6.72 15-15 15h-30c-8.28 0-15-6.72-15-15z" stroke="#3aa6dd" stroke-width="2" fill="#c1e4f7"/><use xlink:href="#a" transform="matrix(1,0,0,1,165,545) translate(9.248888888888889 28.946666666666665)"/><path d="M168.44 463.15h43.12v27.1h-43.12z" stroke="#000" stroke-width="2" fill="#ffbbb1" fill-opacity=".73"/><path d="M180.26 466h19.48v21.4h-19.48z" fill-opacity="0"/><path d="M191.62 480.23l.32.32c-1.5 2.13-2.32 2.8-3.57 2.8-.66 0-1.08-.4-1.08-1.04 0-.28.17-1.04.48-2.24l1.35-5.06c.1-.4.17-.7.17-.8 0-.37-.12-.6-.7-.6-.87 0-2.43 1.48-3.7 3.4-.98 1.5-1.37 2.35-2.35 6.12h-1.83l3.57-13.54c.18-.76.3-1.18.3-1.52 0-.4-.56-.6-1-.6h-.66v-.37c1.47-.2 2.42-.36 3.84-.67l.17.14L184 477.5c2.2-3.57 4.1-5.16 5.62-5.16 1.12 0 1.58.73 1.58 1.64 0 .6-.44 2.42-1.17 4.7-.4 1.28-.8 2.8-.8 3.07 0 .24.17.44.4.44.38 0 .67-.3 2-1.97M197.04 476.45c0 .48-.4.88-.85.88-.5 0-.84-.37-.84-.92 0-.52.34-.9.8-.9.48 0 .88.44.88.95m-.73 8.38l.23.2c-.95 1.44-1.5 1.96-2.36 1.96-.57 0-.85-.32-.85-.96 0-.35.12-.95.38-1.92l.83-3.06c.1-.3.16-.62.16-.76 0-.35-.2-.4-1.12-.42v-.27c.67-.04 1.02-.1 2.76-.42l.07.05-1.6 5.93c-.1.3-.18.5-.18.76 0 .17.1.25.24.25.3 0 .7-.36 1.45-1.34"/><path d="M168.44 632.9h43.12V660h-43.12z" stroke="#000" stroke-width="2" fill="#fff"/><path d="M180.26 638.76h18.76v15.47h-18.76z" fill="#fff"/><path d="M186.84 641.28l.3 1.4c1.7-2.62 2.6-3.5 3.7-3.5.57 0 1 .37 1 .9 0 .52-.35.9-.84.9-.47 0-.7-.43-1.27-.43-.44 0-1.32 1.08-2.4 2.96 0 .18.05.52.2 1.1l.78 3.28c.18.7.4 1 .74 1 .32 0 .6-.24 1.15-.97.2-.3.3-.43.5-.68l.37.22c-1.42 2.2-2.05 2.8-2.98 2.8-.8 0-1.16-.45-1.45-1.67l-.7-2.9-2.16 2.9c-1.1 1.44-1.58 1.66-2.33 1.66-.76 0-1.23-.4-1.23-1.03 0-.5.35-.88.84-.88.22 0 .46.1.78.27.24.14.5.2.63.2.26 0 .73-.45 1.24-1.2l2-2.82-.68-3.03c-.34-1.47-.5-1.66-1.13-1.66-.2 0-.48.04-.95.16l-.44.12-.07-.4.27-.1c1.5-.53 2.3-.7 2.86-.7.6 0 .9.44 1.24 2.1M196.32 643.3c0 .47-.4.87-.85.87-.5 0-.83-.36-.83-.9 0-.55.35-.93.8-.93.48 0 .88.45.88.95m-.73 8.37l.22.2c-.95 1.44-1.5 1.96-2.37 1.96-.57 0-.85-.3-.85-.95 0-.35.12-.95.38-1.92l.83-3.06c.1-.3.17-.62.17-.76 0-.34-.18-.4-1.1-.4v-.3c.67-.04 1-.1 2.76-.42l.07.05-1.63 5.93c-.1.3-.17.52-.17.76 0 .17.1.26.24.26.3 0 .7-.36 1.45-1.35"/><path d="M190 631.9v-12.66" stroke="#000" stroke-width="2" fill="none"/><path d="M191 632.9h-2v-1h2zM194.64 618.5h-9.28l4.64-14.26z"/><path d="M196 619.5h-12l6-18.5zm-9.26-2h6.52L190 607.47z"/><path d="M190 539v-29.52" stroke="#000" stroke-width="2" fill="none"/><path d="M191 540h-2v-1h2zM194.64 508.74h-9.28l4.64-14.26z"/><path d="M196 509.74h-12l6-18.5zm-9.26-2h6.52L190 497.7z"/><path d="M221 570h40v-40H119v40h21.76" fill="none"/><path d="M221 570h3.94m7.88 0h7.9m7.87 0h7.87m4.53-3.35v-7.9m0-7.87V543m0-7.88V530h-2.76m-7.9 0h-7.87m-7.88 0h-7.9m-7.88 0h-7.88m-7.88 0h-7.88m-7.9 0h-7.87m-7.87 0h-7.88m-7.88 0h-7.9m-7.87 0h-7.88m-7.88 0H119v2.65m0 7.88v7.88m0 7.9v7.88m2.06 5.82h7.88m7.88 0h3.94" stroke="#000" stroke-width="2" fill="none"/><path d="M221 571h-1v-2h1zM155.76 570l-14.26 4.64v-9.28z"/><path d="M159 570l-18.5 6v-12zm-16.5 3.26l10.03-3.26-10.03-3.26z"/><defs><path d="M35-20c80-5 92-18 92-116v-484c-22-17-54-26-90-27v-20h169l505 527v-393c0-76-4-90-29-103-11-6-31-9-76-11v-20h251v20c-51 2-72 5-82 14-15 12-15 13-15 83V7h-28L176-574v433c0 65 3 81 13 97 11 19 34 20 95 24V0H35v-20" id="b"/><g id="a"><use transform="matrix(0.017777777777777778,0,0,0.017777777777777778,0,0)" xlink:href="#b"/><use transform="matrix(0.017777777777777778,0,0,0.017777777777777778,15.751111111111111,0)" xlink:href="#b"/></g></defs></g></svg>