<svg xmlns="http://www.w3.org/2000/svg" xmlns:xlink="http://www.w3.org/1999/xlink" xmlns:lucid="lucid" width="374" height="372"><g transform="translate(-891 -355)" lucid:page-tab-id="0_0"><g class="lucid-layer" lucid:layer-id="ZS_vbbotaloE" display="block"><path d="M1240 540c0 88.37-71.63 160-160 160s-160-71.63-160-160 71.63-160 160-160 160 71.63 160 160z" stroke="#000" stroke-width="2" fill="#f9d2de"/><path d="M1196.36 540c0 64.27-52.1 116.36-116.36 116.36-64.27 0-116.36-52.1-116.36-116.36 0-64.27 52.1-116.36 116.36-116.36 64.27 0 116.36 52.1 116.36 116.36z" stroke="#000" stroke-width="2" fill="#fff"/><path d="M1098 540c0 11.05-8.06 20-18 20s-18-8.95-18-20 8.06-20 18-20 18 8.95 18 20z" stroke="#000" stroke-width="2" fill="#fff"/><use xlink:href="#a" transform="matrix(1,0,0,1,1067,525) translate(6.457000000000001 18.996)"/><path d="M1209.1 525.45c0 11.05-8.96 20-20 20-11.05 0-20-8.95-20-20 0-11.04 8.95-20 20-20 11.04 0 20 8.96 20 20z" stroke="#000" stroke-width="2" fill="#fff"/><use xlink:href="#b" transform="matrix(1,0,0,1,1174.090909090909,510.4545454545455) translate(10.055 19.496)"/><path d="M1220 620c0 11.05-8.95 20-20 20s-20-8.95-20-20 8.95-20 20-20 20 8.95 20 20z" stroke="#000" stroke-width="2" fill="#fff"/><use xlink:href="#c" transform="matrix(1,0,0,1,1185,604.9999999999999) translate(7.026000000000001 18.996)"/></g><g class="lucid-layer" lucid:layer-id="uT_v47KlFqKs" display="none"><path d="M922 353.64h60v60h-60z" stroke="#c7e8ac" stroke-width="2" fill="#e9f8dc"/><use xlink:href="#d" transform="matrix(1,0,0,1,927,358.6363636363636) translate(0.026666666666667282 27.96)"/><path d="M921 389h-19.76" stroke="#666" stroke-width="2" fill="none"/><path d="M922 390h-1v-2h1zM900.5 393.64L886.24 389l14.26-4.64z" fill="#666"/><path d="M901.5 395l-18.5-6 18.5-6zm-12.03-6l10.03 3.26v-6.52z" fill="#666"/><path d="M762 355.64c0-11.05 8.95-20 20-20h80c11.05 0 20 8.95 20 20v60c0 11.04-8.95 20-20 20h-80c-11.05 0-20-8.96-20-20z" stroke="#3aa6dd" stroke-width="2" fill="#c1e4f7"/><use xlink:href="#e" transform="matrix(1,0,0,1,767,340.6363636363636) translate(28.756000000000004 39.995999999999995)"/><use xlink:href="#f" transform="matrix(1,0,0,1,767,340.6363636363636) translate(20.557000000000002 57.995999999999995)"/></g><defs><path d="M146-59c4 37 46 38 104 39V0H3v-20c68-2 82-15 115-106l196-534-10-24h93l205 544C641-35 651-20 719-20V0H424v-20c116-3 129-5 96-92l-69-184H229c-21 64-68 178-83 237zm102-284h186l-95-251" id="g"/><use transform="matrix(0.018,0,0,0.018,0,0)" xlink:href="#g" id="a"/><path d="M40 0v-20c38-3 75-4 79-20 8-12 8-12 8-88v-429c0-60-1-64-11-76-11-13-15-14-67-14H23v-20c247-16 533-47 544 179 7 155-168 235-351 197 3 66-8 201 10 241 12 27 64 33 112 30V0H40zm427-490c0-138-103-189-251-162v341c139 35 251-49 251-179" id="h"/><use transform="matrix(0.018,0,0,0.018,0,0)" xlink:href="#h" id="b"/><path d="M35-20c80-5 92-18 92-116v-484c-22-17-54-26-90-27v-20h169l505 527v-393c0-76-4-90-29-103-11-6-31-9-76-11v-20h251v20c-51 2-72 5-82 14-15 12-15 13-15 83V7h-28L176-574v433c0 65 3 81 13 97 11 19 34 20 95 24V0H35v-20" id="i"/><use transform="matrix(0.018,0,0,0.018,0,0)" xlink:href="#i" id="c"/><path fill="#333" d="M35-20c80-5 92-18 92-116v-484c-22-17-54-26-90-27v-20h169l505 527v-393c0-76-4-90-29-103-11-6-31-9-76-11v-20h251v20c-51 2-72 5-82 14-15 12-15 13-15 83V7h-28L176-574v433c0 65 3 81 13 97 11 19 34 20 95 24V0H35v-20" id="j"/><path fill="#333" d="M418-98C381-53 308 13 227 13 122 13 40-83 40-207c0-115 76-230 209-230 86 0 128 35 154 107 7 19 24 23 21 50H111C88-151 163-39 270-40c54 0 95-22 136-71zM114-300h220c-11-70-54-116-108-116-53 0-93 41-112 116" id="k"/><path fill="#333" d="M21 149C7 99 127 41 136 16 45 10-15-79 88-113c34-11 44-18 55-26-66-24-103-72-103-133 0-92 82-164 188-164 49 0 91 15 120 42 50-1 85-3 141-11v67c-41-2-85-7-107-13 67 133-62 252-220 218 1 9-64 28-64 55 0 17 19 25 63 32 34 5 224-1 254 24 37 14 64 54 64 95 0 112-160 177-291 177-99 0-167-41-167-101zm204-295c62 0 104-51 104-127 0-83-48-144-114-144-61 0-104 48-104 116 0 90 47 155 114 155zM157 20c3 9-69 54-69 91 0 56 76 108 157 108 94 0 178-60 178-126 0-32-19-54-56-62 32-4-184-6-210-11" id="l"/><path fill="#333" d="M255-52c-39 28-89 75-129 65-56 0-95-36-95-88 0-54 33-80 126-105 41-11 68-23 96-41v-85c7-65-33-99-79-99-38 0-82 36-60 72l-73 36c-23-58 109-139 155-139 43 0 88 24 112 56 34 46 3 251 20 323 3 12 12 18 25 18 16 0 29-6 52-23l5 15c-40 36-83 60-106 60-30 0-47-23-49-65zm-92 27c14 8 60-30 90-47v-128c-19 11-32 17-93 42-43 18-60 38-60 70 0 35 28 63 63 63" id="m"/><path fill="#333" d="M103-41C88-65 87-77 87-154v-224H38v-17c40-19 81-73 102-136h18v106h153l-17 47H158v199c0 77 2 91 16 109 41 51 89 42 121-21l17 15C277 22 157 46 103-41" id="n"/><path fill="#333" d="M136-604c-28 0-47-17-47-42 0-23 20-40 47-40s47 17 47 41-20 41-47 41zM18-20c77-11 89-9 89-105v-179c0-56 0-55-56-67l-27-6v-17l139-48h15v317c0 62 1 68 13 83 12 14 26 19 64 22V0H18v-20" id="o"/><path fill="#333" d="M226 9L85-316c-33-77-38-82-95-89v-20h219v20c-90 9-78 15-51 81L263-78l102-232c32-59 15-90-62-95v-20h187v20c-50 12-62 26-100 112L258 9h-32" id="p"/><g id="d"><use transform="matrix(0.013333333333333334,0,0,0.013333333333333334,0,0)" xlink:href="#j"/><use transform="matrix(0.013333333333333334,0,0,0.013333333333333334,11.626666666666667,0)" xlink:href="#k"/><use transform="matrix(0.013333333333333334,0,0,0.013333333333333334,17.733333333333334,0)" xlink:href="#l"/><use transform="matrix(0.013333333333333334,0,0,0.013333333333333334,24.439999999999998,0)" xlink:href="#m"/><use transform="matrix(0.013333333333333334,0,0,0.013333333333333334,29.839999999999996,0)" xlink:href="#n"/><use transform="matrix(0.013333333333333334,0,0,0.013333333333333334,34.093333333333334,0)" xlink:href="#o"/><use transform="matrix(0.013333333333333334,0,0,0.013333333333333334,37.733333333333334,0)" xlink:href="#p"/><use transform="matrix(0.013333333333333334,0,0,0.013333333333333334,43.839999999999996,0)" xlink:href="#k"/></g><path fill="#333" d="M203 13C132 13 90-27 90-126v-210c7-38-30-46-67-54v-16l138-30v251c0 75 0 90 16 109 57 67 140 38 209-22v-199c0-55-1-62-7-72-7-12-9-14-55-21l-32-5v-15l165-26v359c-3 51 38 30 72 27v19L386 13v-87c-78 57-141 87-183 87" id="q"/><path fill="#333" d="M246-368c-33 0-65 69-75 81v153c0 81 0 81 10 94 8 24 62 20 101 20V0H29v-20c23 1 46-9 58-23 11-14 13-25 13-90v-216l-71-26v-18l121-43h21v113c33-45 66-139 141-98 9 5 32 10 55 16l-26 65c-22 0-70-28-95-28" id="r"/><path fill="#333" d="M11 0v-20c35 1 61-6 75-22 14-15 14-16 14-95v-434c0-65 0-65-6-72-6-10-55-12-75-16v-18l136-44h16c2 216-4 455 3 664 8 28 34 38 78 37V0H11" id="s"/><g id="e"><use transform="matrix(0.018,0,0,0.018,0,0)" xlink:href="#j"/><use transform="matrix(0.018,0,0,0.018,15.695999999999998,0)" xlink:href="#k"/><use transform="matrix(0.018,0,0,0.018,23.687999999999995,0)" xlink:href="#q"/><use transform="matrix(0.018,0,0,0.018,33.73199999999999,0)" xlink:href="#r"/><use transform="matrix(0.018,0,0,0.018,40.337999999999994,0)" xlink:href="#m"/><use transform="matrix(0.018,0,0,0.018,47.789999999999985,0)" xlink:href="#s"/></g><path fill="#333" d="M230 9L86-315c-33-75-43-84-96-90v-20h208v20c-71 9-66 23-41 80L268-75l106-250c-26-62-45-77-105-80v-20h222v20c-72 3-60 35-39 86l99 239 87-213c19-46 24-62 24-75 0-28-14-35-71-37v-20h180v20c-53 7-67 25-107 124L546 9h-30L388-293 260 9h-30" id="t"/><path fill="#333" d="M274 13C149 13 40-81 40-214c0-125 100-222 230-222 131 0 232 98 232 226C502-85 402 13 274 13zM120-244c0 128 74 232 166 232 78 0 136-74 136-172 0-123-76-227-166-227-78 0-136 71-136 167" id="u"/><path fill="#333" d="M27 0v-20c25 1 48-8 60-23 11-14 13-25 13-90v-438c0-65 0-65-6-71-3-9-51-13-69-17v-19l130-43h16v465l143-100c22-15 29-23 29-31 0-13-21-19-57-18v-20h213v20c-80-10-194 92-264 138L407-91c58 60 77 68 127 71V0H304v-20c60-4 57-20 22-57L171-237c3 47-9 195 12 202 10 14 31 15 62 15V0H27" id="v"/><g id="f"><use transform="matrix(0.018,0,0,0.018,0,0)" xlink:href="#j"/><use transform="matrix(0.018,0,0,0.018,15.695999999999998,0)" xlink:href="#k"/><use transform="matrix(0.018,0,0,0.018,23.561999999999998,0)" xlink:href="#n"/><use transform="matrix(0.018,0,0,0.018,30.023999999999997,0)" xlink:href="#t"/><use transform="matrix(0.018,0,0,0.018,43.28999999999999,0)" xlink:href="#u"/><use transform="matrix(0.018,0,0,0.018,52.86599999999999,0)" xlink:href="#r"/><use transform="matrix(0.018,0,0,0.018,59.202,0)" xlink:href="#v"/></g></defs></g></svg>