<svg xmlns="http://www.w3.org/2000/svg" xmlns:xlink="http://www.w3.org/1999/xlink" xmlns:lucid="lucid" width="386" height="372"><g transform="translate(-510 -355)" lucid:page-tab-id="0_0"><g class="lucid-layer" lucid:layer-id="ZS_vbbotaloE" display="block"><path d="M860 540c0 88.37-71.63 160-160 160s-160-71.63-160-160 71.63-160 160-160 160 71.63 160 160z" stroke="#000" stroke-width="2" fill="#f9d2de"/><path d="M816.36 540c0 64.27-52.1 116.36-116.36 116.36-64.27 0-116.36-52.1-116.36-116.36 0-64.27 52.1-116.36 116.36-116.36 64.27 0 116.36 52.1 116.36 116.36z" stroke="#000" stroke-width="2" fill="#fff"/><path d="M718 540c0 11.05-8.06 20-18 20s-18-8.95-18-20 8.06-20 18-20 18 8.95 18 20z" stroke="#000" stroke-width="2" fill="#fff"/><use xlink:href="#a" transform="matrix(1,0,0,1,687,525) translate(6.457000000000001 18.996)"/><path d="M829.1 525.45c0 11.05-8.96 20-20 20-11.05 0-20-8.95-20-20 0-11.04 8.95-20 20-20 11.04 0 20 8.96 20 20z" stroke="#000" stroke-width="2" fill="#fff"/><use xlink:href="#b" transform="matrix(1,0,0,1,794.090909090909,510.45454545454544) translate(10.055 19.496)"/><path d="M789.1 589.1c0 11.04-8.96 20-20 20-11.05 0-20-8.96-20-20 0-11.05 8.95-20 20-20 11.04 0 20 8.95 20 20z" stroke="#000" stroke-width="2" fill="#fff"/><use xlink:href="#c" transform="matrix(1,0,0,1,754.0909090909091,574.0909090909091) translate(7.026000000000001 18.996)"/></g><g class="lucid-layer" lucid:layer-id="uT_v47KlFqKs" display="none"><path d="M921 389h-19.76" stroke="#666" stroke-width="2" fill="none"/><path d="M922 390h-1v-2h1zM900.5 393.64L886.24 389l14.26-4.64z" fill="#666"/><path d="M901.5 395l-18.5-6 18.5-6zm-12.03-6l10.03 3.26v-6.52z" fill="#666"/><path d="M762 355.64c0-11.05 8.95-20 20-20h80c11.05 0 20 8.95 20 20v60c0 11.04-8.95 20-20 20h-80c-11.05 0-20-8.96-20-20z" stroke="#3aa6dd" stroke-width="2" fill="#c1e4f7"/><use xlink:href="#d" transform="matrix(1,0,0,1,767,340.6363636363636) translate(28.756000000000004 39.995999999999995)"/><use xlink:href="#e" transform="matrix(1,0,0,1,767,340.6363636363636) translate(20.557000000000002 57.995999999999995)"/><path d="M682 308h40v160h-40z" stroke="#ffc374" stroke-width="2" fill="#ffebd0"/><use xlink:href="#f" transform="matrix(6.123233995736766e-17,1,-1,6.123233995736766e-17,717,313) translate(34.887 18.996)"/><path d="M761 388h-19.76" stroke="#666" stroke-width="2" fill="none"/><path d="M762 389h-1v-2h1zM740.5 392.64L726.24 388l14.26-4.64z" fill="#666"/><path d="M741.5 394l-18.5-6 18.5-6zm-12.03-6l10.03 3.26v-6.52z" fill="#666"/><path d="M592 353.64c15.46 0 28 15.67 28 35s-12.54 35-28 35h-84c-15.46 0-28-15.67-28-35s12.54-35 28-35z" stroke="#ccc" stroke-width="2" fill="#f8f8f8"/><use xlink:href="#g" transform="matrix(1,0,0,1,485,358.6363636363636) translate(20.657000000000004 33.995999999999995)"/><use xlink:href="#h" transform="matrix(1,0,0,1,485,358.6363636363636) translate(76.439 33.995999999999995)"/><path d="M421 480h129v-37.13" stroke="#666" stroke-width="2" fill="none"/><path d="M421 481h-1v-2h1zM554.64 442.14h-9.28l4.64-14.27z" fill="#666"/><path d="M556 443.14h-12l6-18.5zm-9.26-2h6.52L550 431.1z" fill="#666"/><path d="M421 294h129v40.4" stroke="#666" stroke-width="2" fill="none"/><path d="M421 295h-1v-2h1zM550 349.4l-4.64-14.27h9.28z" fill="#666"/><path d="M550 352.64l-6-18.5h12zm-3.26-16.5l3.26 10.02 3.26-10.03z" fill="#666"/><path d="M621 388.64h41.76" stroke="#666" stroke-width="2" fill="none"/><path d="M621 389.64h-1.07l.07-1-.07-1H621zM677.76 388.64l-14.26 4.63V384z" fill="#666"/><path d="M681 388.64l-18.5 6v-12.02zm-16.5 3.26l10.03-3.26-10.03-3.26z" fill="#666"/></g><defs><path d="M146-59c4 37 46 38 104 39V0H3v-20c68-2 82-15 115-106l196-534-10-24h93l205 544C641-35 651-20 719-20V0H424v-20c116-3 129-5 96-92l-69-184H229c-21 64-68 178-83 237zm102-284h186l-95-251" id="i"/><use transform="matrix(0.018,0,0,0.018,0,0)" xlink:href="#i" id="a"/><path d="M40 0v-20c38-3 75-4 79-20 8-12 8-12 8-88v-429c0-60-1-64-11-76-11-13-15-14-67-14H23v-20c247-16 533-47 544 179 7 155-168 235-351 197 3 66-8 201 10 241 12 27 64 33 112 30V0H40zm427-490c0-138-103-189-251-162v341c139 35 251-49 251-179" id="j"/><use transform="matrix(0.018,0,0,0.018,0,0)" xlink:href="#j" id="b"/><path d="M35-20c80-5 92-18 92-116v-484c-22-17-54-26-90-27v-20h169l505 527v-393c0-76-4-90-29-103-11-6-31-9-76-11v-20h251v20c-51 2-72 5-82 14-15 12-15 13-15 83V7h-28L176-574v433c0 65 3 81 13 97 11 19 34 20 95 24V0H35v-20" id="k"/><use transform="matrix(0.018,0,0,0.018,0,0)" xlink:href="#k" id="c"/><path fill="#333" d="M35-20c80-5 92-18 92-116v-484c-22-17-54-26-90-27v-20h169l505 527v-393c0-76-4-90-29-103-11-6-31-9-76-11v-20h251v20c-51 2-72 5-82 14-15 12-15 13-15 83V7h-28L176-574v433c0 65 3 81 13 97 11 19 34 20 95 24V0H35v-20" id="l"/><path fill="#333" d="M418-98C381-53 308 13 227 13 122 13 40-83 40-207c0-115 76-230 209-230 86 0 128 35 154 107 7 19 24 23 21 50H111C88-151 163-39 270-40c54 0 95-22 136-71zM114-300h220c-11-70-54-116-108-116-53 0-93 41-112 116" id="m"/><path fill="#333" d="M203 13C132 13 90-27 90-126v-210c7-38-30-46-67-54v-16l138-30v251c0 75 0 90 16 109 57 67 140 38 209-22v-199c0-55-1-62-7-72-7-12-9-14-55-21l-32-5v-15l165-26v359c-3 51 38 30 72 27v19L386 13v-87c-78 57-141 87-183 87" id="n"/><path fill="#333" d="M246-368c-33 0-65 69-75 81v153c0 81 0 81 10 94 8 24 62 20 101 20V0H29v-20c23 1 46-9 58-23 11-14 13-25 13-90v-216l-71-26v-18l121-43h21v113c33-45 66-139 141-98 9 5 32 10 55 16l-26 65c-22 0-70-28-95-28" id="o"/><path fill="#333" d="M255-52c-39 28-89 75-129 65-56 0-95-36-95-88 0-54 33-80 126-105 41-11 68-23 96-41v-85c7-65-33-99-79-99-38 0-82 36-60 72l-73 36c-23-58 109-139 155-139 43 0 88 24 112 56 34 46 3 251 20 323 3 12 12 18 25 18 16 0 29-6 52-23l5 15c-40 36-83 60-106 60-30 0-47-23-49-65zm-92 27c14 8 60-30 90-47v-128c-19 11-32 17-93 42-43 18-60 38-60 70 0 35 28 63 63 63" id="p"/><path fill="#333" d="M11 0v-20c35 1 61-6 75-22 14-15 14-16 14-95v-434c0-65 0-65-6-72-6-10-55-12-75-16v-18l136-44h16c2 216-4 455 3 664 8 28 34 38 78 37V0H11" id="q"/><g id="d"><use transform="matrix(0.018,0,0,0.018,0,0)" xlink:href="#l"/><use transform="matrix(0.018,0,0,0.018,15.695999999999998,0)" xlink:href="#m"/><use transform="matrix(0.018,0,0,0.018,23.687999999999995,0)" xlink:href="#n"/><use transform="matrix(0.018,0,0,0.018,33.73199999999999,0)" xlink:href="#o"/><use transform="matrix(0.018,0,0,0.018,40.337999999999994,0)" xlink:href="#p"/><use transform="matrix(0.018,0,0,0.018,47.789999999999985,0)" xlink:href="#q"/></g><path fill="#333" d="M103-41C88-65 87-77 87-154v-224H38v-17c40-19 81-73 102-136h18v106h153l-17 47H158v199c0 77 2 91 16 109 41 51 89 42 121-21l17 15C277 22 157 46 103-41" id="r"/><path fill="#333" d="M230 9L86-315c-33-75-43-84-96-90v-20h208v20c-71 9-66 23-41 80L268-75l106-250c-26-62-45-77-105-80v-20h222v20c-72 3-60 35-39 86l99 239 87-213c19-46 24-62 24-75 0-28-14-35-71-37v-20h180v20c-53 7-67 25-107 124L546 9h-30L388-293 260 9h-30" id="s"/><path fill="#333" d="M274 13C149 13 40-81 40-214c0-125 100-222 230-222 131 0 232 98 232 226C502-85 402 13 274 13zM120-244c0 128 74 232 166 232 78 0 136-74 136-172 0-123-76-227-166-227-78 0-136 71-136 167" id="t"/><path fill="#333" d="M27 0v-20c25 1 48-8 60-23 11-14 13-25 13-90v-438c0-65 0-65-6-71-3-9-51-13-69-17v-19l130-43h16v465l143-100c22-15 29-23 29-31 0-13-21-19-57-18v-20h213v20c-80-10-194 92-264 138L407-91c58 60 77 68 127 71V0H304v-20c60-4 57-20 22-57L171-237c3 47-9 195 12 202 10 14 31 15 62 15V0H27" id="u"/><g id="e"><use transform="matrix(0.018,0,0,0.018,0,0)" xlink:href="#l"/><use transform="matrix(0.018,0,0,0.018,15.695999999999998,0)" xlink:href="#m"/><use transform="matrix(0.018,0,0,0.018,23.561999999999998,0)" xlink:href="#r"/><use transform="matrix(0.018,0,0,0.018,30.023999999999997,0)" xlink:href="#s"/><use transform="matrix(0.018,0,0,0.018,43.28999999999999,0)" xlink:href="#t"/><use transform="matrix(0.018,0,0,0.018,52.86599999999999,0)" xlink:href="#o"/><use transform="matrix(0.018,0,0,0.018,59.202,0)" xlink:href="#u"/></g><path fill="#333" d="M348-677c248 0 415 108 415 320C763-171 614-10 401-2 301 2 134-1 23 0v-20c40 1 73-5 87-21 14-17 16-18 16-94v-398c0-64-4-80-16-95s-40-20-87-19v-20c185-7 293-10 325-10zM226-35c10 12 25 15 69 15 139 0 191-14 254-66 74-62 114-150 114-253 0-162-88-278-232-304-59-11-144-15-216-10v558c0 43 1 50 11 60" id="v"/><path fill="#333" d="M177 13c-22 0-50-8-77-15-8 0-12 4-17 14H66L55-108h17C80-46 120-6 173-6c42 0 76-32 76-72 0-36-26-67-98-115-82-55-97-74-97-122 0-103 127-148 223-105l3 99h-19c-9-55-42-90-85-90-37 0-66 27-66 61 0 35 18 55 84 97 73 46 116 60 116 144 0 69-58 122-133 122" id="w"/><path fill="#333" d="M226 13C114 13 41-85 40-194c0-134 111-243 247-243 67 0 120 27 120 61 0 18-14 32-32 32-33 10-87-78-125-66-74 0-138 89-138 191 0 108 64 188 151 188 53 0 89-21 131-77l16 9C366-27 301 13 226 13" id="x"/><path fill="#333" d="M136-604c-28 0-47-17-47-42 0-23 20-40 47-40s47 17 47 41-20 41-47 41zM18-20c77-11 89-9 89-105v-179c0-56 0-55-56-67l-27-6v-17l139-48h15v317c0 62 1 68 13 83 12 14 26 19 64 22V0H18v-20" id="y"/><path fill="#333" d="M90 114c-1-146 1-295-1-440-1-25-2-26-64-41v-21l115-70h21v103c79-57 124-78 167-78 84 0 159 95 159 200C487-70 326 60 161-14c4 59-11 208 16 225 14 18 47 20 83 19v20H7v-20c35 1 59-5 72-23 9-13 11-27 11-93zm71-200c39 36 88 59 128 59 73 0 127-70 127-165 0-106-62-189-141-189-34 0-74 19-114 53v242" id="z"/><g id="f"><use transform="matrix(0.018,0,0,0.018,0,0)" xlink:href="#v"/><use transform="matrix(0.018,0,0,0.018,14.723999999999998,0)" xlink:href="#m"/><use transform="matrix(0.018,0,0,0.018,22.896,0)" xlink:href="#w"/><use transform="matrix(0.018,0,0,0.018,29.088,0)" xlink:href="#x"/><use transform="matrix(0.018,0,0,0.018,37.17000000000001,0)" xlink:href="#o"/><use transform="matrix(0.018,0,0,0.018,44.190000000000005,0)" xlink:href="#y"/><use transform="matrix(0.018,0,0,0.018,49.212,0)" xlink:href="#z"/><use transform="matrix(0.018,0,0,0.018,58.536,0)" xlink:href="#r"/><use transform="matrix(0.018,0,0,0.018,64.206,0)" xlink:href="#t"/><use transform="matrix(0.018,0,0,0.018,73.782,0)" xlink:href="#o"/></g><path d="M195 0v-20c43 1 92-1 107-21 13-17 16-19 16-94v-493H155c-55 0-59 2-75 25-11 17-20 46-28 93H33l17-174h19c7 16 11 17 64 17h459c53 0 57-1 64-17h19l17 174h-19c-9-53-19-81-32-98-15-19-18-20-71-20H407v493c0 76 3 77 16 94 15 19 63 22 105 21V0H195" id="A"/><path d="M246-368c-33 0-65 69-75 81v153c0 81 0 81 10 94 8 24 62 20 101 20V0H29v-20c23 1 46-9 58-23 11-14 13-25 13-90v-216l-71-26v-18l121-43h21v113c33-45 66-139 141-98 9 5 32 10 55 16l-26 65c-22 0-70-28-95-28" id="B"/><path d="M136-604c-28 0-47-17-47-42 0-23 20-40 47-40s47 17 47 41-20 41-47 41zM18-20c77-11 89-9 89-105v-179c0-56 0-55-56-67l-27-6v-17l139-48h15v317c0 62 1 68 13 83 12 14 26 19 64 22V0H18v-20" id="C"/><path d="M90 114c-1-146 1-295-1-440-1-25-2-26-64-41v-21l115-70h21v103c79-57 124-78 167-78 84 0 159 95 159 200C487-70 326 60 161-14c4 59-11 208 16 225 14 18 47 20 83 19v20H7v-20c35 1 59-5 72-23 9-13 11-27 11-93zm71-200c39 36 88 59 128 59 73 0 127-70 127-165 0-106-62-189-141-189-34 0-74 19-114 53v242" id="D"/><path d="M11 0v-20c35 1 61-6 75-22 14-15 14-16 14-95v-434c0-65 0-65-6-72-6-10-55-12-75-16v-18l136-44h16c2 216-4 455 3 664 8 28 34 38 78 37V0H11" id="E"/><path d="M418-98C381-53 308 13 227 13 122 13 40-83 40-207c0-115 76-230 209-230 86 0 128 35 154 107 7 19 24 23 21 50H111C88-151 163-39 270-40c54 0 95-22 136-71zM114-300h220c-11-70-54-116-108-116-53 0-93 41-112 116" id="F"/><path d="M103-41C88-65 87-77 87-154v-224H38v-17c40-19 81-73 102-136h18v106h153l-17 47H158v199c0 77 2 91 16 109 41 51 89 42 121-21l17 15C277 22 157 46 103-41" id="G"/><g id="g"><use transform="matrix(0.018,0,0,0.018,0,0)" xlink:href="#A"/><use transform="matrix(0.018,0,0,0.018,11.879999999999999,0)" xlink:href="#B"/><use transform="matrix(0.018,0,0,0.018,18.9,0)" xlink:href="#C"/><use transform="matrix(0.018,0,0,0.018,23.921999999999997,0)" xlink:href="#D"/><use transform="matrix(0.018,0,0,0.018,33.156,0)" xlink:href="#E"/><use transform="matrix(0.018,0,0,0.018,37.674,0)" xlink:href="#F"/><use transform="matrix(0.018,0,0,0.018,45.54,0)" xlink:href="#G"/></g><path d="M24 0v-19c40 1 80-1 89-17 14-15 14-21 14-104v-392c0-76-2-77-16-94-14-16-45-22-84-21v-20h317v20c-15 1-20 2-40 2-87 3-88 5-88 108v436c0 58 3 62 55 62h120c79 0 87-4 141-73l35-45h19L504 0H24" id="H"/><path d="M274 13C149 13 40-81 40-214c0-125 100-222 230-222 131 0 232 98 232 226C502-85 402 13 274 13zM120-244c0 128 74 232 166 232 78 0 136-74 136-172 0-123-76-227-166-227-78 0-136 71-136 167" id="I"/><path d="M177 13c-22 0-50-8-77-15-8 0-12 4-17 14H66L55-108h17C80-46 120-6 173-6c42 0 76-32 76-72 0-36-26-67-98-115-82-55-97-74-97-122 0-103 127-148 223-105l3 99h-19c-9-55-42-90-85-90-37 0-66 27-66 61 0 35 18 55 84 97 73 46 116 60 116 144 0 69-58 122-133 122" id="J"/><g id="h"><use transform="matrix(0.018,0,0,0.018,0,0)" xlink:href="#H"/><use transform="matrix(0.018,0,0,0.018,11.069999999999999,0)" xlink:href="#I"/><use transform="matrix(0.018,0,0,0.018,20.61,0)" xlink:href="#J"/><use transform="matrix(0.018,0,0,0.018,26.712,0)" xlink:href="#J"/></g></defs></g></svg>